<svg xmlns="http://www.w3.org/2000/svg" xmlns:xlink="http://www.w3.org/1999/xlink" width="500" zoomAndPan="magnify" viewBox="0 0 375 374.999991" height="500" preserveAspectRatio="xMidYMid meet" version="1.0"><defs><g/><clipPath id="e111cca854"><path d="M 127 150 L 145 150 L 145 171 L 127 171 Z M 127 150 " clip-rule="nonzero"/></clipPath><clipPath id="05fd020afc"><path d="M 178.335938 85.488281 L 257.148438 149.046875 L 196.414062 224.359375 L 117.597656 160.800781 Z M 178.335938 85.488281 " clip-rule="nonzero"/></clipPath><clipPath id="06fd38e689"><path d="M 178.335938 85.488281 L 257.148438 149.046875 L 196.414062 224.359375 L 117.597656 160.800781 Z M 178.335938 85.488281 " clip-rule="nonzero"/></clipPath><clipPath id="7db6168e09"><path d="M 178.335938 85.488281 L 257.148438 149.046875 L 196.414062 224.359375 L 117.597656 160.800781 Z M 178.335938 85.488281 " clip-rule="nonzero"/></clipPath><clipPath id="273d209ffc"><path d="M 126 149 L 146 149 L 146 172 L 126 172 Z M 126 149 " clip-rule="nonzero"/></clipPath><clipPath id="12463b0a91"><path d="M 178.335938 85.488281 L 257.148438 149.046875 L 196.414062 224.359375 L 117.597656 160.800781 Z M 178.335938 85.488281 " clip-rule="nonzero"/></clipPath><clipPath id="cb3ae328a9"><path d="M 178.335938 85.488281 L 257.148438 149.046875 L 196.414062 224.359375 L 117.597656 160.800781 Z M 178.335938 85.488281 " clip-rule="nonzero"/></clipPath><clipPath id="48d9e7618b"><path d="M 178.335938 85.488281 L 257.148438 149.046875 L 196.414062 224.359375 L 117.597656 160.800781 Z M 178.335938 85.488281 " clip-rule="nonzero"/></clipPath><clipPath id="ea99686dd6"><path d="M 122 138 L 246 138 L 246 181 L 122 181 Z M 122 138 " clip-rule="nonzero"/></clipPath><clipPath id="110faf3955"><path d="M 178.335938 85.488281 L 257.148438 149.046875 L 196.414062 224.359375 L 117.597656 160.800781 Z M 178.335938 85.488281 " clip-rule="nonzero"/></clipPath><clipPath id="8af9b3676f"><path d="M 178.335938 85.488281 L 257.148438 149.046875 L 196.414062 224.359375 L 117.597656 160.800781 Z M 178.335938 85.488281 " clip-rule="nonzero"/></clipPath><clipPath id="fc8ec7b0c3"><path d="M 178.335938 85.488281 L 257.148438 149.046875 L 196.414062 224.359375 L 117.597656 160.800781 Z M 178.335938 85.488281 " clip-rule="nonzero"/></clipPath><clipPath id="1457f793d9"><path d="M 120 136 L 248 136 L 248 183 L 120 183 Z M 120 136 " clip-rule="nonzero"/></clipPath><clipPath id="0433dac7ea"><path d="M 178.335938 85.488281 L 257.148438 149.046875 L 196.414062 224.359375 L 117.597656 160.800781 Z M 178.335938 85.488281 " clip-rule="nonzero"/></clipPath><clipPath id="952ee87454"><path d="M 178.335938 85.488281 L 257.148438 149.046875 L 196.414062 224.359375 L 117.597656 160.800781 Z M 178.335938 85.488281 " clip-rule="nonzero"/></clipPath><clipPath id="9399672528"><path d="M 178.335938 85.488281 L 257.148438 149.046875 L 196.414062 224.359375 L 117.597656 160.800781 Z M 178.335938 85.488281 " clip-rule="nonzero"/></clipPath><clipPath id="ac67b7ae3e"><path d="M 125 139 L 244 139 L 244 180 L 125 180 Z M 125 139 " clip-rule="nonzero"/></clipPath><clipPath id="abc1bf617c"><path d="M 178.335938 85.488281 L 257.148438 149.046875 L 196.414062 224.359375 L 117.597656 160.800781 Z M 178.335938 85.488281 " clip-rule="nonzero"/></clipPath><clipPath id="4bf4e6cff3"><path d="M 178.335938 85.488281 L 257.148438 149.046875 L 196.414062 224.359375 L 117.597656 160.800781 Z M 178.335938 85.488281 " clip-rule="nonzero"/></clipPath><clipPath id="9df5cd7391"><path d="M 178.335938 85.488281 L 257.148438 149.046875 L 196.414062 224.359375 L 117.597656 160.800781 Z M 178.335938 85.488281 " clip-rule="nonzero"/></clipPath><clipPath id="b4cb8158e0"><path d="M 123 137 L 246 137 L 246 182 L 123 182 Z M 123 137 " clip-rule="nonzero"/></clipPath><clipPath id="dcce3fc0f0"><path d="M 178.335938 85.488281 L 257.148438 149.046875 L 196.414062 224.359375 L 117.597656 160.800781 Z M 178.335938 85.488281 " clip-rule="nonzero"/></clipPath><clipPath id="8217d5f9bd"><path d="M 178.335938 85.488281 L 257.148438 149.046875 L 196.414062 224.359375 L 117.597656 160.800781 Z M 178.335938 85.488281 " clip-rule="nonzero"/></clipPath><clipPath id="c3d21e944e"><path d="M 178.335938 85.488281 L 257.148438 149.046875 L 196.414062 224.359375 L 117.597656 160.800781 Z M 178.335938 85.488281 " clip-rule="nonzero"/></clipPath><clipPath id="2acd373616"><path d="M 126 140 L 243 140 L 243 178 L 126 178 Z M 126 140 " clip-rule="nonzero"/></clipPath><clipPath id="a2378d72b7"><path d="M 178.335938 85.488281 L 257.148438 149.046875 L 196.414062 224.359375 L 117.597656 160.800781 Z M 178.335938 85.488281 " clip-rule="nonzero"/></clipPath><clipPath id="a487ec6511"><path d="M 178.335938 85.488281 L 257.148438 149.046875 L 196.414062 224.359375 L 117.597656 160.800781 Z M 178.335938 85.488281 " clip-rule="nonzero"/></clipPath><clipPath id="b873066124"><path d="M 178.335938 85.488281 L 257.148438 149.046875 L 196.414062 224.359375 L 117.597656 160.800781 Z M 178.335938 85.488281 " clip-rule="nonzero"/></clipPath><clipPath id="58b44095bb"><path d="M 124 139 L 245 139 L 245 180 L 124 180 Z M 124 139 " clip-rule="nonzero"/></clipPath><clipPath id="7db361bc5e"><path d="M 178.335938 85.488281 L 257.148438 149.046875 L 196.414062 224.359375 L 117.597656 160.800781 Z M 178.335938 85.488281 " clip-rule="nonzero"/></clipPath><clipPath id="58df4cb9ab"><path d="M 178.335938 85.488281 L 257.148438 149.046875 L 196.414062 224.359375 L 117.597656 160.800781 Z M 178.335938 85.488281 " clip-rule="nonzero"/></clipPath><clipPath id="18bbe38948"><path d="M 178.335938 85.488281 L 257.148438 149.046875 L 196.414062 224.359375 L 117.597656 160.800781 Z M 178.335938 85.488281 " clip-rule="nonzero"/></clipPath><clipPath id="5d075058cb"><path d="M 215 142 L 254 142 L 254 178 L 215 178 Z M 215 142 " clip-rule="nonzero"/></clipPath><clipPath id="8ecfa44abe"><path d="M 178.335938 85.488281 L 257.148438 149.046875 L 196.414062 224.359375 L 117.597656 160.800781 Z M 178.335938 85.488281 " clip-rule="nonzero"/></clipPath><clipPath id="9f2de5e136"><path d="M 178.335938 85.488281 L 257.148438 149.046875 L 196.414062 224.359375 L 117.597656 160.800781 Z M 178.335938 85.488281 " clip-rule="nonzero"/></clipPath><clipPath id="3cb48651ed"><path d="M 178.335938 85.488281 L 257.148438 149.046875 L 196.414062 224.359375 L 117.597656 160.800781 Z M 178.335938 85.488281 " clip-rule="nonzero"/></clipPath><clipPath id="109b286408"><path d="M 213 145 L 251 145 L 251 181 L 213 181 Z M 213 145 " clip-rule="nonzero"/></clipPath><clipPath id="87816ad163"><path d="M 178.335938 85.488281 L 257.148438 149.046875 L 196.414062 224.359375 L 117.597656 160.800781 Z M 178.335938 85.488281 " clip-rule="nonzero"/></clipPath><clipPath id="3cbe17cbfd"><path d="M 178.335938 85.488281 L 257.148438 149.046875 L 196.414062 224.359375 L 117.597656 160.800781 Z M 178.335938 85.488281 " clip-rule="nonzero"/></clipPath><clipPath id="f4aff9f7e5"><path d="M 178.335938 85.488281 L 257.148438 149.046875 L 196.414062 224.359375 L 117.597656 160.800781 Z M 178.335938 85.488281 " clip-rule="nonzero"/></clipPath><clipPath id="803a0787ce"><path d="M 210 147 L 248 147 L 248 183 L 210 183 Z M 210 147 " clip-rule="nonzero"/></clipPath><clipPath id="85389924b4"><path d="M 178.335938 85.488281 L 257.148438 149.046875 L 196.414062 224.359375 L 117.597656 160.800781 Z M 178.335938 85.488281 " clip-rule="nonzero"/></clipPath><clipPath id="046abbefba"><path d="M 178.335938 85.488281 L 257.148438 149.046875 L 196.414062 224.359375 L 117.597656 160.800781 Z M 178.335938 85.488281 " clip-rule="nonzero"/></clipPath><clipPath id="cdd7f2982e"><path d="M 178.335938 85.488281 L 257.148438 149.046875 L 196.414062 224.359375 L 117.597656 160.800781 Z M 178.335938 85.488281 " clip-rule="nonzero"/></clipPath><clipPath id="d19a117303"><path d="M 206 149 L 245 149 L 245 186 L 206 186 Z M 206 149 " clip-rule="nonzero"/></clipPath><clipPath id="a6b16e514e"><path d="M 178.335938 85.488281 L 257.148438 149.046875 L 196.414062 224.359375 L 117.597656 160.800781 Z M 178.335938 85.488281 " clip-rule="nonzero"/></clipPath><clipPath id="08c24451e4"><path d="M 178.335938 85.488281 L 257.148438 149.046875 L 196.414062 224.359375 L 117.597656 160.800781 Z M 178.335938 85.488281 " clip-rule="nonzero"/></clipPath><clipPath id="c1d6f8516d"><path d="M 178.335938 85.488281 L 257.148438 149.046875 L 196.414062 224.359375 L 117.597656 160.800781 Z M 178.335938 85.488281 " clip-rule="nonzero"/></clipPath><clipPath id="4217f9f4b7"><path d="M 202 151 L 242 151 L 242 188 L 202 188 Z M 202 151 " clip-rule="nonzero"/></clipPath><clipPath id="59d6d9a2f9"><path d="M 178.335938 85.488281 L 257.148438 149.046875 L 196.414062 224.359375 L 117.597656 160.800781 Z M 178.335938 85.488281 " clip-rule="nonzero"/></clipPath><clipPath id="9f460a8692"><path d="M 178.335938 85.488281 L 257.148438 149.046875 L 196.414062 224.359375 L 117.597656 160.800781 Z M 178.335938 85.488281 " clip-rule="nonzero"/></clipPath><clipPath id="ca71934101"><path d="M 178.335938 85.488281 L 257.148438 149.046875 L 196.414062 224.359375 L 117.597656 160.800781 Z M 178.335938 85.488281 " clip-rule="nonzero"/></clipPath><clipPath id="2a7aa56292"><path d="M 197 154 L 218 154 L 218 180 L 197 180 Z M 197 154 " clip-rule="nonzero"/></clipPath><clipPath id="426abe15f8"><path d="M 178.335938 85.488281 L 257.148438 149.046875 L 196.414062 224.359375 L 117.597656 160.800781 Z M 178.335938 85.488281 " clip-rule="nonzero"/></clipPath><clipPath id="94d9e7c988"><path d="M 178.335938 85.488281 L 257.148438 149.046875 L 196.414062 224.359375 L 117.597656 160.800781 Z M 178.335938 85.488281 " clip-rule="nonzero"/></clipPath><clipPath id="2fb4bf2c6f"><path d="M 178.335938 85.488281 L 257.148438 149.046875 L 196.414062 224.359375 L 117.597656 160.800781 Z M 178.335938 85.488281 " clip-rule="nonzero"/></clipPath><clipPath id="3d54dfca33"><path d="M 196 153 L 219 153 L 219 182 L 196 182 Z M 196 153 " clip-rule="nonzero"/></clipPath><clipPath id="36d5e687b7"><path d="M 178.335938 85.488281 L 257.148438 149.046875 L 196.414062 224.359375 L 117.597656 160.800781 Z M 178.335938 85.488281 " clip-rule="nonzero"/></clipPath><clipPath id="26d00a9165"><path d="M 178.335938 85.488281 L 257.148438 149.046875 L 196.414062 224.359375 L 117.597656 160.800781 Z M 178.335938 85.488281 " clip-rule="nonzero"/></clipPath><clipPath id="f598e815b8"><path d="M 178.335938 85.488281 L 257.148438 149.046875 L 196.414062 224.359375 L 117.597656 160.800781 Z M 178.335938 85.488281 " clip-rule="nonzero"/></clipPath><clipPath id="c7623aa5d0"><path d="M 203 159 L 222 159 L 222 181 L 203 181 Z M 203 159 " clip-rule="nonzero"/></clipPath><clipPath id="743a87029e"><path d="M 178.335938 85.488281 L 257.148438 149.046875 L 196.414062 224.359375 L 117.597656 160.800781 Z M 178.335938 85.488281 " clip-rule="nonzero"/></clipPath><clipPath id="88f3c1beab"><path d="M 178.335938 85.488281 L 257.148438 149.046875 L 196.414062 224.359375 L 117.597656 160.800781 Z M 178.335938 85.488281 " clip-rule="nonzero"/></clipPath><clipPath id="50983a80ef"><path d="M 178.335938 85.488281 L 257.148438 149.046875 L 196.414062 224.359375 L 117.597656 160.800781 Z M 178.335938 85.488281 " clip-rule="nonzero"/></clipPath><clipPath id="9387202968"><path d="M 201 157 L 223 157 L 223 182 L 201 182 Z M 201 157 " clip-rule="nonzero"/></clipPath><clipPath id="f9fd56ca4b"><path d="M 178.335938 85.488281 L 257.148438 149.046875 L 196.414062 224.359375 L 117.597656 160.800781 Z M 178.335938 85.488281 " clip-rule="nonzero"/></clipPath><clipPath id="cfba7d9814"><path d="M 178.335938 85.488281 L 257.148438 149.046875 L 196.414062 224.359375 L 117.597656 160.800781 Z M 178.335938 85.488281 " clip-rule="nonzero"/></clipPath><clipPath id="41e85c8f3e"><path d="M 178.335938 85.488281 L 257.148438 149.046875 L 196.414062 224.359375 L 117.597656 160.800781 Z M 178.335938 85.488281 " clip-rule="nonzero"/></clipPath><clipPath id="6db411809a"><path d="M 208 162 L 227 162 L 227 179 L 208 179 Z M 208 162 " clip-rule="nonzero"/></clipPath><clipPath id="01a4e4a02a"><path d="M 178.335938 85.488281 L 257.148438 149.046875 L 196.414062 224.359375 L 117.597656 160.800781 Z M 178.335938 85.488281 " clip-rule="nonzero"/></clipPath><clipPath id="b20ecb060c"><path d="M 178.335938 85.488281 L 257.148438 149.046875 L 196.414062 224.359375 L 117.597656 160.800781 Z M 178.335938 85.488281 " clip-rule="nonzero"/></clipPath><clipPath id="e90dbf39a3"><path d="M 178.335938 85.488281 L 257.148438 149.046875 L 196.414062 224.359375 L 117.597656 160.800781 Z M 178.335938 85.488281 " clip-rule="nonzero"/></clipPath><clipPath id="c67e34e4f2"><path d="M 206 160 L 229 160 L 229 180 L 206 180 Z M 206 160 " clip-rule="nonzero"/></clipPath><clipPath id="f71cd264b4"><path d="M 178.335938 85.488281 L 257.148438 149.046875 L 196.414062 224.359375 L 117.597656 160.800781 Z M 178.335938 85.488281 " clip-rule="nonzero"/></clipPath><clipPath id="3da57ed3f5"><path d="M 178.335938 85.488281 L 257.148438 149.046875 L 196.414062 224.359375 L 117.597656 160.800781 Z M 178.335938 85.488281 " clip-rule="nonzero"/></clipPath><clipPath id="5c4b421628"><path d="M 178.335938 85.488281 L 257.148438 149.046875 L 196.414062 224.359375 L 117.597656 160.800781 Z M 178.335938 85.488281 " clip-rule="nonzero"/></clipPath><clipPath id="ee79b1e450"><path d="M 196 154 L 214 154 L 214 180 L 196 180 Z M 196 154 " clip-rule="nonzero"/></clipPath><clipPath id="fb0e000046"><path d="M 178.335938 85.488281 L 257.148438 149.046875 L 196.414062 224.359375 L 117.597656 160.800781 Z M 178.335938 85.488281 " clip-rule="nonzero"/></clipPath><clipPath id="5fcf22d884"><path d="M 178.335938 85.488281 L 257.148438 149.046875 L 196.414062 224.359375 L 117.597656 160.800781 Z M 178.335938 85.488281 " clip-rule="nonzero"/></clipPath><clipPath id="03a70e5e8a"><path d="M 178.335938 85.488281 L 257.148438 149.046875 L 196.414062 224.359375 L 117.597656 160.800781 Z M 178.335938 85.488281 " clip-rule="nonzero"/></clipPath><clipPath id="6b32abe7a6"><path d="M 194 152 L 215 152 L 215 182 L 194 182 Z M 194 152 " clip-rule="nonzero"/></clipPath><clipPath id="b06cd80333"><path d="M 178.335938 85.488281 L 257.148438 149.046875 L 196.414062 224.359375 L 117.597656 160.800781 Z M 178.335938 85.488281 " clip-rule="nonzero"/></clipPath><clipPath id="211fb5f00d"><path d="M 178.335938 85.488281 L 257.148438 149.046875 L 196.414062 224.359375 L 117.597656 160.800781 Z M 178.335938 85.488281 " clip-rule="nonzero"/></clipPath><clipPath id="90440ac568"><path d="M 178.335938 85.488281 L 257.148438 149.046875 L 196.414062 224.359375 L 117.597656 160.800781 Z M 178.335938 85.488281 " clip-rule="nonzero"/></clipPath><clipPath id="1496c96434"><path d="M 181 142 L 199 142 L 199 164 L 181 164 Z M 181 142 " clip-rule="nonzero"/></clipPath><clipPath id="04e14ce504"><path d="M 178.335938 85.488281 L 257.148438 149.046875 L 196.414062 224.359375 L 117.597656 160.800781 Z M 178.335938 85.488281 " clip-rule="nonzero"/></clipPath><clipPath id="035e92c9c5"><path d="M 178.335938 85.488281 L 257.148438 149.046875 L 196.414062 224.359375 L 117.597656 160.800781 Z M 178.335938 85.488281 " clip-rule="nonzero"/></clipPath><clipPath id="632e5bd7a7"><path d="M 178.335938 85.488281 L 257.148438 149.046875 L 196.414062 224.359375 L 117.597656 160.800781 Z M 178.335938 85.488281 " clip-rule="nonzero"/></clipPath><clipPath id="3f9b9f5f7f"><path d="M 179 140 L 200 140 L 200 166 L 179 166 Z M 179 140 " clip-rule="nonzero"/></clipPath><clipPath id="adcf7dcbdb"><path d="M 178.335938 85.488281 L 257.148438 149.046875 L 196.414062 224.359375 L 117.597656 160.800781 Z M 178.335938 85.488281 " clip-rule="nonzero"/></clipPath><clipPath id="aee73e31ed"><path d="M 178.335938 85.488281 L 257.148438 149.046875 L 196.414062 224.359375 L 117.597656 160.800781 Z M 178.335938 85.488281 " clip-rule="nonzero"/></clipPath><clipPath id="78909505c0"><path d="M 178.335938 85.488281 L 257.148438 149.046875 L 196.414062 224.359375 L 117.597656 160.800781 Z M 178.335938 85.488281 " clip-rule="nonzero"/></clipPath><clipPath id="467eec463f"><path d="M 187 146 L 203 146 L 203 170 L 187 170 Z M 187 146 " clip-rule="nonzero"/></clipPath><clipPath id="55914c7766"><path d="M 178.335938 85.488281 L 257.148438 149.046875 L 196.414062 224.359375 L 117.597656 160.800781 Z M 178.335938 85.488281 " clip-rule="nonzero"/></clipPath><clipPath id="b1a6badb93"><path d="M 178.335938 85.488281 L 257.148438 149.046875 L 196.414062 224.359375 L 117.597656 160.800781 Z M 178.335938 85.488281 " clip-rule="nonzero"/></clipPath><clipPath id="10d02143ea"><path d="M 178.335938 85.488281 L 257.148438 149.046875 L 196.414062 224.359375 L 117.597656 160.800781 Z M 178.335938 85.488281 " clip-rule="nonzero"/></clipPath><clipPath id="f4c0b0160f"><path d="M 185 144 L 205 144 L 205 172 L 185 172 Z M 185 144 " clip-rule="nonzero"/></clipPath><clipPath id="2400935b2a"><path d="M 178.335938 85.488281 L 257.148438 149.046875 L 196.414062 224.359375 L 117.597656 160.800781 Z M 178.335938 85.488281 " clip-rule="nonzero"/></clipPath><clipPath id="9d98a2690b"><path d="M 178.335938 85.488281 L 257.148438 149.046875 L 196.414062 224.359375 L 117.597656 160.800781 Z M 178.335938 85.488281 " clip-rule="nonzero"/></clipPath><clipPath id="d06ab10169"><path d="M 178.335938 85.488281 L 257.148438 149.046875 L 196.414062 224.359375 L 117.597656 160.800781 Z M 178.335938 85.488281 " clip-rule="nonzero"/></clipPath><clipPath id="fff8de40e4"><path d="M 192 150 L 209 150 L 209 177 L 192 177 Z M 192 150 " clip-rule="nonzero"/></clipPath><clipPath id="aff4fe764d"><path d="M 178.335938 85.488281 L 257.148438 149.046875 L 196.414062 224.359375 L 117.597656 160.800781 Z M 178.335938 85.488281 " clip-rule="nonzero"/></clipPath><clipPath id="ea36248221"><path d="M 178.335938 85.488281 L 257.148438 149.046875 L 196.414062 224.359375 L 117.597656 160.800781 Z M 178.335938 85.488281 " clip-rule="nonzero"/></clipPath><clipPath id="34a3f66152"><path d="M 178.335938 85.488281 L 257.148438 149.046875 L 196.414062 224.359375 L 117.597656 160.800781 Z M 178.335938 85.488281 " clip-rule="nonzero"/></clipPath><clipPath id="507b5b0294"><path d="M 190 148 L 211 148 L 211 179 L 190 179 Z M 190 148 " clip-rule="nonzero"/></clipPath><clipPath id="9f27326190"><path d="M 178.335938 85.488281 L 257.148438 149.046875 L 196.414062 224.359375 L 117.597656 160.800781 Z M 178.335938 85.488281 " clip-rule="nonzero"/></clipPath><clipPath id="4cffe1eb92"><path d="M 178.335938 85.488281 L 257.148438 149.046875 L 196.414062 224.359375 L 117.597656 160.800781 Z M 178.335938 85.488281 " clip-rule="nonzero"/></clipPath><clipPath id="2c0bcfd91f"><path d="M 178.335938 85.488281 L 257.148438 149.046875 L 196.414062 224.359375 L 117.597656 160.800781 Z M 178.335938 85.488281 " clip-rule="nonzero"/></clipPath><clipPath id="a13825f086"><path d="M 176 140 L 194 140 L 194 161 L 176 161 Z M 176 140 " clip-rule="nonzero"/></clipPath><clipPath id="2a4e7328e6"><path d="M 178.335938 85.488281 L 257.148438 149.046875 L 196.414062 224.359375 L 117.597656 160.800781 Z M 178.335938 85.488281 " clip-rule="nonzero"/></clipPath><clipPath id="b380636db1"><path d="M 178.335938 85.488281 L 257.148438 149.046875 L 196.414062 224.359375 L 117.597656 160.800781 Z M 178.335938 85.488281 " clip-rule="nonzero"/></clipPath><clipPath id="b4b7928109"><path d="M 178.335938 85.488281 L 257.148438 149.046875 L 196.414062 224.359375 L 117.597656 160.800781 Z M 178.335938 85.488281 " clip-rule="nonzero"/></clipPath><clipPath id="117ac53b7d"><path d="M 174 138 L 195 138 L 195 163 L 174 163 Z M 174 138 " clip-rule="nonzero"/></clipPath><clipPath id="a41cc042b3"><path d="M 178.335938 85.488281 L 257.148438 149.046875 L 196.414062 224.359375 L 117.597656 160.800781 Z M 178.335938 85.488281 " clip-rule="nonzero"/></clipPath><clipPath id="69ac461a26"><path d="M 178.335938 85.488281 L 257.148438 149.046875 L 196.414062 224.359375 L 117.597656 160.800781 Z M 178.335938 85.488281 " clip-rule="nonzero"/></clipPath><clipPath id="ccb05b1c07"><path d="M 178.335938 85.488281 L 257.148438 149.046875 L 196.414062 224.359375 L 117.597656 160.800781 Z M 178.335938 85.488281 " clip-rule="nonzero"/></clipPath><clipPath id="aafd2da486"><path d="M 170 138 L 188 138 L 188 160 L 170 160 Z M 170 138 " clip-rule="nonzero"/></clipPath><clipPath id="f4f4b77c07"><path d="M 178.335938 85.488281 L 257.148438 149.046875 L 196.414062 224.359375 L 117.597656 160.800781 Z M 178.335938 85.488281 " clip-rule="nonzero"/></clipPath><clipPath id="695060c3b9"><path d="M 178.335938 85.488281 L 257.148438 149.046875 L 196.414062 224.359375 L 117.597656 160.800781 Z M 178.335938 85.488281 " clip-rule="nonzero"/></clipPath><clipPath id="716bd66fdf"><path d="M 178.335938 85.488281 L 257.148438 149.046875 L 196.414062 224.359375 L 117.597656 160.800781 Z M 178.335938 85.488281 " clip-rule="nonzero"/></clipPath><clipPath id="c5cef75a40"><path d="M 168 137 L 189 137 L 189 161 L 168 161 Z M 168 137 " clip-rule="nonzero"/></clipPath><clipPath id="efe4790cdb"><path d="M 178.335938 85.488281 L 257.148438 149.046875 L 196.414062 224.359375 L 117.597656 160.800781 Z M 178.335938 85.488281 " clip-rule="nonzero"/></clipPath><clipPath id="e4dba177bb"><path d="M 178.335938 85.488281 L 257.148438 149.046875 L 196.414062 224.359375 L 117.597656 160.800781 Z M 178.335938 85.488281 " clip-rule="nonzero"/></clipPath><clipPath id="c86b3b80bc"><path d="M 178.335938 85.488281 L 257.148438 149.046875 L 196.414062 224.359375 L 117.597656 160.800781 Z M 178.335938 85.488281 " clip-rule="nonzero"/></clipPath><clipPath id="08388fb649"><path d="M 165 138 L 183 138 L 183 160 L 165 160 Z M 165 138 " clip-rule="nonzero"/></clipPath><clipPath id="0f5efff106"><path d="M 178.335938 85.488281 L 257.148438 149.046875 L 196.414062 224.359375 L 117.597656 160.800781 Z M 178.335938 85.488281 " clip-rule="nonzero"/></clipPath><clipPath id="d5d2f9fdb6"><path d="M 178.335938 85.488281 L 257.148438 149.046875 L 196.414062 224.359375 L 117.597656 160.800781 Z M 178.335938 85.488281 " clip-rule="nonzero"/></clipPath><clipPath id="ce8637b904"><path d="M 178.335938 85.488281 L 257.148438 149.046875 L 196.414062 224.359375 L 117.597656 160.800781 Z M 178.335938 85.488281 " clip-rule="nonzero"/></clipPath><clipPath id="86666bda83"><path d="M 164 137 L 184 137 L 184 161 L 164 161 Z M 164 137 " clip-rule="nonzero"/></clipPath><clipPath id="f48c2727f7"><path d="M 178.335938 85.488281 L 257.148438 149.046875 L 196.414062 224.359375 L 117.597656 160.800781 Z M 178.335938 85.488281 " clip-rule="nonzero"/></clipPath><clipPath id="ada2957d40"><path d="M 178.335938 85.488281 L 257.148438 149.046875 L 196.414062 224.359375 L 117.597656 160.800781 Z M 178.335938 85.488281 " clip-rule="nonzero"/></clipPath><clipPath id="b06d69f268"><path d="M 178.335938 85.488281 L 257.148438 149.046875 L 196.414062 224.359375 L 117.597656 160.800781 Z M 178.335938 85.488281 " clip-rule="nonzero"/></clipPath><clipPath id="e9c4ec4215"><path d="M 159 138 L 178 138 L 178 162 L 159 162 Z M 159 138 " clip-rule="nonzero"/></clipPath><clipPath id="9b96660c6d"><path d="M 178.335938 85.488281 L 257.148438 149.046875 L 196.414062 224.359375 L 117.597656 160.800781 Z M 178.335938 85.488281 " clip-rule="nonzero"/></clipPath><clipPath id="3e6a363bae"><path d="M 178.335938 85.488281 L 257.148438 149.046875 L 196.414062 224.359375 L 117.597656 160.800781 Z M 178.335938 85.488281 " clip-rule="nonzero"/></clipPath><clipPath id="6a2aab597e"><path d="M 178.335938 85.488281 L 257.148438 149.046875 L 196.414062 224.359375 L 117.597656 160.800781 Z M 178.335938 85.488281 " clip-rule="nonzero"/></clipPath><clipPath id="b6e811c1bd"><path d="M 158 136 L 180 136 L 180 163 L 158 163 Z M 158 136 " clip-rule="nonzero"/></clipPath><clipPath id="9d4c0035cf"><path d="M 178.335938 85.488281 L 257.148438 149.046875 L 196.414062 224.359375 L 117.597656 160.800781 Z M 178.335938 85.488281 " clip-rule="nonzero"/></clipPath><clipPath id="e985cf1d5b"><path d="M 178.335938 85.488281 L 257.148438 149.046875 L 196.414062 224.359375 L 117.597656 160.800781 Z M 178.335938 85.488281 " clip-rule="nonzero"/></clipPath><clipPath id="0fc0a460ac"><path d="M 178.335938 85.488281 L 257.148438 149.046875 L 196.414062 224.359375 L 117.597656 160.800781 Z M 178.335938 85.488281 " clip-rule="nonzero"/></clipPath><clipPath id="88e7769639"><path d="M 154 139 L 173 139 L 173 164 L 154 164 Z M 154 139 " clip-rule="nonzero"/></clipPath><clipPath id="7c78425594"><path d="M 178.335938 85.488281 L 257.148438 149.046875 L 196.414062 224.359375 L 117.597656 160.800781 Z M 178.335938 85.488281 " clip-rule="nonzero"/></clipPath><clipPath id="092dddd6b6"><path d="M 178.335938 85.488281 L 257.148438 149.046875 L 196.414062 224.359375 L 117.597656 160.800781 Z M 178.335938 85.488281 " clip-rule="nonzero"/></clipPath><clipPath id="5771736e55"><path d="M 178.335938 85.488281 L 257.148438 149.046875 L 196.414062 224.359375 L 117.597656 160.800781 Z M 178.335938 85.488281 " clip-rule="nonzero"/></clipPath><clipPath id="7c1b242a72"><path d="M 152 138 L 175 138 L 175 166 L 152 166 Z M 152 138 " clip-rule="nonzero"/></clipPath><clipPath id="3849a2b5c9"><path d="M 178.335938 85.488281 L 257.148438 149.046875 L 196.414062 224.359375 L 117.597656 160.800781 Z M 178.335938 85.488281 " clip-rule="nonzero"/></clipPath><clipPath id="6616556e42"><path d="M 178.335938 85.488281 L 257.148438 149.046875 L 196.414062 224.359375 L 117.597656 160.800781 Z M 178.335938 85.488281 " clip-rule="nonzero"/></clipPath><clipPath id="4ad5a40a72"><path d="M 178.335938 85.488281 L 257.148438 149.046875 L 196.414062 224.359375 L 117.597656 160.800781 Z M 178.335938 85.488281 " clip-rule="nonzero"/></clipPath><clipPath id="23f80a512b"><path d="M 149 140 L 168 140 L 168 167 L 149 167 Z M 149 140 " clip-rule="nonzero"/></clipPath><clipPath id="dbe43000b8"><path d="M 178.335938 85.488281 L 257.148438 149.046875 L 196.414062 224.359375 L 117.597656 160.800781 Z M 178.335938 85.488281 " clip-rule="nonzero"/></clipPath><clipPath id="1e35346634"><path d="M 178.335938 85.488281 L 257.148438 149.046875 L 196.414062 224.359375 L 117.597656 160.800781 Z M 178.335938 85.488281 " clip-rule="nonzero"/></clipPath><clipPath id="3f81101504"><path d="M 178.335938 85.488281 L 257.148438 149.046875 L 196.414062 224.359375 L 117.597656 160.800781 Z M 178.335938 85.488281 " clip-rule="nonzero"/></clipPath><clipPath id="1d86c089be"><path d="M 147 139 L 170 139 L 170 169 L 147 169 Z M 147 139 " clip-rule="nonzero"/></clipPath><clipPath id="bc9c12affa"><path d="M 178.335938 85.488281 L 257.148438 149.046875 L 196.414062 224.359375 L 117.597656 160.800781 Z M 178.335938 85.488281 " clip-rule="nonzero"/></clipPath><clipPath id="0392f624bf"><path d="M 178.335938 85.488281 L 257.148438 149.046875 L 196.414062 224.359375 L 117.597656 160.800781 Z M 178.335938 85.488281 " clip-rule="nonzero"/></clipPath><clipPath id="5e5953ea34"><path d="M 178.335938 85.488281 L 257.148438 149.046875 L 196.414062 224.359375 L 117.597656 160.800781 Z M 178.335938 85.488281 " clip-rule="nonzero"/></clipPath><clipPath id="82e3356bfd"><path d="M 143 142 L 163 142 L 163 170 L 143 170 Z M 143 142 " clip-rule="nonzero"/></clipPath><clipPath id="c4c736f8f2"><path d="M 178.335938 85.488281 L 257.148438 149.046875 L 196.414062 224.359375 L 117.597656 160.800781 Z M 178.335938 85.488281 " clip-rule="nonzero"/></clipPath><clipPath id="8424f77947"><path d="M 178.335938 85.488281 L 257.148438 149.046875 L 196.414062 224.359375 L 117.597656 160.800781 Z M 178.335938 85.488281 " clip-rule="nonzero"/></clipPath><clipPath id="48d186a90a"><path d="M 178.335938 85.488281 L 257.148438 149.046875 L 196.414062 224.359375 L 117.597656 160.800781 Z M 178.335938 85.488281 " clip-rule="nonzero"/></clipPath><clipPath id="90f352264e"><path d="M 142 141 L 164 141 L 164 172 L 142 172 Z M 142 141 " clip-rule="nonzero"/></clipPath><clipPath id="0f3e39031a"><path d="M 178.335938 85.488281 L 257.148438 149.046875 L 196.414062 224.359375 L 117.597656 160.800781 Z M 178.335938 85.488281 " clip-rule="nonzero"/></clipPath><clipPath id="a181a352bb"><path d="M 178.335938 85.488281 L 257.148438 149.046875 L 196.414062 224.359375 L 117.597656 160.800781 Z M 178.335938 85.488281 " clip-rule="nonzero"/></clipPath><clipPath id="0bfba3d8fe"><path d="M 178.335938 85.488281 L 257.148438 149.046875 L 196.414062 224.359375 L 117.597656 160.800781 Z M 178.335938 85.488281 " clip-rule="nonzero"/></clipPath><clipPath id="d056d6c9df"><path d="M 138 144 L 157 144 L 157 174 L 138 174 Z M 138 144 " clip-rule="nonzero"/></clipPath><clipPath id="7fa9c9d412"><path d="M 178.335938 85.488281 L 257.148438 149.046875 L 196.414062 224.359375 L 117.597656 160.800781 Z M 178.335938 85.488281 " clip-rule="nonzero"/></clipPath><clipPath id="f98267a00f"><path d="M 178.335938 85.488281 L 257.148438 149.046875 L 196.414062 224.359375 L 117.597656 160.800781 Z M 178.335938 85.488281 " clip-rule="nonzero"/></clipPath><clipPath id="b735095df9"><path d="M 178.335938 85.488281 L 257.148438 149.046875 L 196.414062 224.359375 L 117.597656 160.800781 Z M 178.335938 85.488281 " clip-rule="nonzero"/></clipPath><clipPath id="20b6294d2e"><path d="M 136 143 L 159 143 L 159 176 L 136 176 Z M 136 143 " clip-rule="nonzero"/></clipPath><clipPath id="abf003f8ff"><path d="M 178.335938 85.488281 L 257.148438 149.046875 L 196.414062 224.359375 L 117.597656 160.800781 Z M 178.335938 85.488281 " clip-rule="nonzero"/></clipPath><clipPath id="e0c37cdc37"><path d="M 178.335938 85.488281 L 257.148438 149.046875 L 196.414062 224.359375 L 117.597656 160.800781 Z M 178.335938 85.488281 " clip-rule="nonzero"/></clipPath><clipPath id="20b0479ba2"><path d="M 178.335938 85.488281 L 257.148438 149.046875 L 196.414062 224.359375 L 117.597656 160.800781 Z M 178.335938 85.488281 " clip-rule="nonzero"/></clipPath><clipPath id="99f8669887"><path d="M 132 147 L 153 147 L 153 177 L 132 177 Z M 132 147 " clip-rule="nonzero"/></clipPath><clipPath id="949fd08a3a"><path d="M 178.335938 85.488281 L 257.148438 149.046875 L 196.414062 224.359375 L 117.597656 160.800781 Z M 178.335938 85.488281 " clip-rule="nonzero"/></clipPath><clipPath id="5a9adea9f4"><path d="M 178.335938 85.488281 L 257.148438 149.046875 L 196.414062 224.359375 L 117.597656 160.800781 Z M 178.335938 85.488281 " clip-rule="nonzero"/></clipPath><clipPath id="0674bc8abd"><path d="M 178.335938 85.488281 L 257.148438 149.046875 L 196.414062 224.359375 L 117.597656 160.800781 Z M 178.335938 85.488281 " clip-rule="nonzero"/></clipPath><clipPath id="bb98834f26"><path d="M 131 146 L 155 146 L 155 179 L 131 179 Z M 131 146 " clip-rule="nonzero"/></clipPath><clipPath id="c910d530c8"><path d="M 178.335938 85.488281 L 257.148438 149.046875 L 196.414062 224.359375 L 117.597656 160.800781 Z M 178.335938 85.488281 " clip-rule="nonzero"/></clipPath><clipPath id="f3714060c7"><path d="M 178.335938 85.488281 L 257.148438 149.046875 L 196.414062 224.359375 L 117.597656 160.800781 Z M 178.335938 85.488281 " clip-rule="nonzero"/></clipPath><clipPath id="541082fcdb"><path d="M 178.335938 85.488281 L 257.148438 149.046875 L 196.414062 224.359375 L 117.597656 160.800781 Z M 178.335938 85.488281 " clip-rule="nonzero"/></clipPath><clipPath id="412460d96b"><path d="M 125 147 L 162 147 L 162 176 L 125 176 Z M 125 147 " clip-rule="nonzero"/></clipPath><clipPath id="30ed2dfdb9"><path d="M 178.335938 85.488281 L 257.148438 149.046875 L 196.414062 224.359375 L 117.597656 160.800781 Z M 178.335938 85.488281 " clip-rule="nonzero"/></clipPath><clipPath id="15b29ada52"><path d="M 178.335938 85.488281 L 257.148438 149.046875 L 196.414062 224.359375 L 117.597656 160.800781 Z M 178.335938 85.488281 " clip-rule="nonzero"/></clipPath><clipPath id="bfef9cca5b"><path d="M 178.335938 85.488281 L 257.148438 149.046875 L 196.414062 224.359375 L 117.597656 160.800781 Z M 178.335938 85.488281 " clip-rule="nonzero"/></clipPath><clipPath id="115c756a0b"><path d="M 140 141 L 175 141 L 175 167 L 140 167 Z M 140 141 " clip-rule="nonzero"/></clipPath><clipPath id="52b15b76b6"><path d="M 178.335938 85.488281 L 257.148438 149.046875 L 196.414062 224.359375 L 117.597656 160.800781 Z M 178.335938 85.488281 " clip-rule="nonzero"/></clipPath><clipPath id="536e63ef43"><path d="M 178.335938 85.488281 L 257.148438 149.046875 L 196.414062 224.359375 L 117.597656 160.800781 Z M 178.335938 85.488281 " clip-rule="nonzero"/></clipPath><clipPath id="cce408c8ec"><path d="M 178.335938 85.488281 L 257.148438 149.046875 L 196.414062 224.359375 L 117.597656 160.800781 Z M 178.335938 85.488281 " clip-rule="nonzero"/></clipPath><clipPath id="17a2f62fd8"><path d="M 156 140 L 191 140 L 191 159 L 156 159 Z M 156 140 " clip-rule="nonzero"/></clipPath><clipPath id="040d2f74d3"><path d="M 178.335938 85.488281 L 257.148438 149.046875 L 196.414062 224.359375 L 117.597656 160.800781 Z M 178.335938 85.488281 " clip-rule="nonzero"/></clipPath><clipPath id="1c18570cef"><path d="M 178.335938 85.488281 L 257.148438 149.046875 L 196.414062 224.359375 L 117.597656 160.800781 Z M 178.335938 85.488281 " clip-rule="nonzero"/></clipPath><clipPath id="7b81a76a4d"><path d="M 178.335938 85.488281 L 257.148438 149.046875 L 196.414062 224.359375 L 117.597656 160.800781 Z M 178.335938 85.488281 " clip-rule="nonzero"/></clipPath><clipPath id="9bfd615ac5"><path d="M 178 143 L 203 143 L 203 166 L 178 166 Z M 178 143 " clip-rule="nonzero"/></clipPath><clipPath id="6ed76cef05"><path d="M 178.335938 85.488281 L 257.148438 149.046875 L 196.414062 224.359375 L 117.597656 160.800781 Z M 178.335938 85.488281 " clip-rule="nonzero"/></clipPath><clipPath id="3e8ce057d3"><path d="M 178.335938 85.488281 L 257.148438 149.046875 L 196.414062 224.359375 L 117.597656 160.800781 Z M 178.335938 85.488281 " clip-rule="nonzero"/></clipPath><clipPath id="21c99c85a4"><path d="M 178.335938 85.488281 L 257.148438 149.046875 L 196.414062 224.359375 L 117.597656 160.800781 Z M 178.335938 85.488281 " clip-rule="nonzero"/></clipPath><clipPath id="8717b0fd5c"><path d="M 195 155 L 221 155 L 221 179 L 195 179 Z M 195 155 " clip-rule="nonzero"/></clipPath><clipPath id="d51ff4f165"><path d="M 178.335938 85.488281 L 257.148438 149.046875 L 196.414062 224.359375 L 117.597656 160.800781 Z M 178.335938 85.488281 " clip-rule="nonzero"/></clipPath><clipPath id="15056e0c92"><path d="M 178.335938 85.488281 L 257.148438 149.046875 L 196.414062 224.359375 L 117.597656 160.800781 Z M 178.335938 85.488281 " clip-rule="nonzero"/></clipPath><clipPath id="65377b43f9"><path d="M 178.335938 85.488281 L 257.148438 149.046875 L 196.414062 224.359375 L 117.597656 160.800781 Z M 178.335938 85.488281 " clip-rule="nonzero"/></clipPath><clipPath id="75f8ce125f"><path d="M 211 160 L 233 160 L 233 178 L 211 178 Z M 211 160 " clip-rule="nonzero"/></clipPath><clipPath id="e847fb008a"><path d="M 178.335938 85.488281 L 257.148438 149.046875 L 196.414062 224.359375 L 117.597656 160.800781 Z M 178.335938 85.488281 " clip-rule="nonzero"/></clipPath><clipPath id="2b491a8939"><path d="M 178.335938 85.488281 L 257.148438 149.046875 L 196.414062 224.359375 L 117.597656 160.800781 Z M 178.335938 85.488281 " clip-rule="nonzero"/></clipPath><clipPath id="1dc45e0fc9"><path d="M 178.335938 85.488281 L 257.148438 149.046875 L 196.414062 224.359375 L 117.597656 160.800781 Z M 178.335938 85.488281 " clip-rule="nonzero"/></clipPath><clipPath id="9fba88224e"><path d="M 221 153 L 243 153 L 243 172 L 221 172 Z M 221 153 " clip-rule="nonzero"/></clipPath><clipPath id="f267bf19c1"><path d="M 178.335938 85.488281 L 257.148438 149.046875 L 196.414062 224.359375 L 117.597656 160.800781 Z M 178.335938 85.488281 " clip-rule="nonzero"/></clipPath><clipPath id="aff0aeb042"><path d="M 178.335938 85.488281 L 257.148438 149.046875 L 196.414062 224.359375 L 117.597656 160.800781 Z M 178.335938 85.488281 " clip-rule="nonzero"/></clipPath><clipPath id="330921f725"><path d="M 178.335938 85.488281 L 257.148438 149.046875 L 196.414062 224.359375 L 117.597656 160.800781 Z M 178.335938 85.488281 " clip-rule="nonzero"/></clipPath></defs><g clip-path="url(#e111cca854)"><g clip-path="url(#05fd020afc)"><g clip-path="url(#06fd38e689)"><g clip-path="url(#7db6168e09)"><path fill="#000000" d="M 129.992188 150.835938 L 144.425781 169.300781 L 143.890625 170.167969 L 127.617188 152.171875 Z M 129.992188 150.835938 " fill-opacity="1" fill-rule="evenodd"/></g></g></g></g><g clip-path="url(#273d209ffc)"><g clip-path="url(#12463b0a91)"><g clip-path="url(#cb3ae328a9)"><g clip-path="url(#48d9e7618b)"><path stroke-linecap="butt" transform="matrix(0.202336, 0.163174, -0.163662, 0.202941, 167.034853, 95.902069)" fill="none" stroke-linejoin="miter" d="M 21.737413 253.21056 L 109.5546 273.58782 L 110.046284 277.465579 L 17.851435 262.91793 Z M 21.737413 253.21056 " stroke="#000000" stroke-width="1" stroke-opacity="1" stroke-miterlimit="4"/></g></g></g></g><g clip-path="url(#ea99686dd6)"><g clip-path="url(#110faf3955)"><g clip-path="url(#8af9b3676f)"><g clip-path="url(#fc8ec7b0c3)"><path fill="#000000" d="M 122.644531 154.925781 L 151.996094 178.292969 C 219.332031 121.894531 187.808594 217.421875 245.351562 163.28125 L 229.71875 151.585938 C 194.449219 192.578125 199.714844 102.730469 122.644531 154.925781 Z M 122.644531 154.925781 " fill-opacity="1" fill-rule="evenodd"/></g></g></g></g><g clip-path="url(#1457f793d9)"><g clip-path="url(#0433dac7ea)"><g clip-path="url(#952ee87454)"><g clip-path="url(#9399672528)"><path stroke-linecap="butt" transform="matrix(0.202336, 0.163174, -0.163662, 0.202941, 167.034853, 95.902069)" fill="none" stroke-linejoin="miter" d="M 9.610807 283.113715 L 153.941677 282.207965 C 219.385436 -48.316768 355.68614 312.805555 397.255966 12.601948 L 322.196243 15.324212 C 315.573813 222.639244 114.356483 -58.30044 9.610807 283.113715 Z M 9.610807 283.113715 " stroke="#000000" stroke-width="1.209" stroke-opacity="1" stroke-miterlimit="4"/></g></g></g></g><g clip-path="url(#ac67b7ae3e)"><g clip-path="url(#abc1bf617c)"><g clip-path="url(#4bf4e6cff3)"><g clip-path="url(#9df5cd7391)"><path fill="#ffffff" d="M 125.105469 154.476562 L 152.007812 176.046875 C 219.515625 122.007812 188.523438 214.941406 243.582031 163.472656 L 229.785156 153.050781 C 194.835938 192.703125 198.582031 105.511719 125.105469 154.476562 Z M 125.105469 154.476562 " fill-opacity="1" fill-rule="evenodd"/></g></g></g></g><g clip-path="url(#b4cb8158e0)"><g clip-path="url(#dcce3fc0f0)"><g clip-path="url(#8217d5f9bd)"><g clip-path="url(#c3d21e944e)"><path stroke-linecap="butt" transform="matrix(0.202336, 0.163174, -0.163662, 0.202941, 167.034853, 95.902069)" fill="none" stroke-linejoin="miter" d="M 15.895605 275.846924 L 148.552354 275.473517 C 220.208817 -48.420605 351.836414 303.678314 392.419069 17.434184 L 325.93277 19.537945 C 317.033787 222.081304 117.680934 -47.268745 15.895605 275.846924 Z M 15.895605 275.846924 " stroke="#000000" stroke-width="1.167" stroke-opacity="1" stroke-miterlimit="4"/></g></g></g></g><g clip-path="url(#2acd373616)"><g clip-path="url(#a2378d72b7)"><g clip-path="url(#a487ec6511)"><g clip-path="url(#b873066124)"><path fill="#000000" d="M 126.023438 155.726562 L 150.183594 174.761719 C 217.648438 119.214844 190.84375 212.886719 242.878906 162.558594 L 231.054688 153.375 C 193.367188 195.316406 199.980469 107.679688 126.019531 155.726562 Z M 126.023438 155.726562 " fill-opacity="1" fill-rule="evenodd"/></g></g></g></g><g clip-path="url(#58b44095bb)"><g clip-path="url(#7db361bc5e)"><g clip-path="url(#58df4cb9ab)"><g clip-path="url(#18bbe38948)"><path stroke-linecap="butt" transform="matrix(0.202336, 0.163174, -0.163662, 0.202941, 167.034853, 95.902069)" fill="none" stroke-linejoin="miter" d="M 21.663419 277.368765 L 139.985722 276.028814 C 207.872074 -52.263768 353.822808 291.956628 388.105944 16.398052 L 330.517593 17.449147 C 318.946565 233.420373 127.104526 -44.162988 21.651721 277.378171 Z M 21.663419 277.368765 " stroke="#000000" stroke-width="1.049" stroke-opacity="1" stroke-miterlimit="4"/></g></g></g></g><g clip-path="url(#5d075058cb)"><g clip-path="url(#8ecfa44abe)"><g clip-path="url(#9f2de5e136)"><g clip-path="url(#3cb48651ed)"><path stroke-linecap="butt" transform="matrix(0.202336, 0.163174, -0.163662, 0.202941, 167.034853, 95.902069)" fill="none" stroke-linejoin="miter" d="M 323.054319 30.01357 L 391.462089 29.521562 " stroke="#000000" stroke-width="8" stroke-opacity="1" stroke-miterlimit="4"/></g></g></g></g><g clip-path="url(#109b286408)"><g clip-path="url(#87816ad163)"><g clip-path="url(#3cbe17cbfd)"><g clip-path="url(#f4aff9f7e5)"><path stroke-linecap="butt" transform="matrix(0.202336, 0.163174, -0.163662, 0.202941, 164.339233, 98.440935)" fill="none" stroke-linejoin="miter" d="M 323.055714 30.013416 L 391.463484 29.521408 " stroke="#000000" stroke-width="8" stroke-opacity="1" stroke-miterlimit="4"/></g></g></g></g><g clip-path="url(#803a0787ce)"><g clip-path="url(#85389924b4)"><g clip-path="url(#046abbefba)"><g clip-path="url(#cdd7f2982e)"><path stroke-linecap="butt" transform="matrix(0.202336, 0.163174, -0.163662, 0.202941, 161.349208, 100.742389)" fill="none" stroke-linejoin="miter" d="M 323.047615 30.016615 L 391.464819 29.53627 " stroke="#000000" stroke-width="8" stroke-opacity="1" stroke-miterlimit="4"/></g></g></g></g><g clip-path="url(#d19a117303)"><g clip-path="url(#a6b16e514e)"><g clip-path="url(#08c24451e4)"><g clip-path="url(#c1d6f8516d)"><path stroke-linecap="butt" transform="matrix(0.20877, 0.168363, -0.163662, 0.202941, 156.039268, 101.172934)" fill="none" stroke-linejoin="miter" d="M 323.047035 30.010462 L 391.468761 29.528617 " stroke="#000000" stroke-width="8" stroke-opacity="1" stroke-miterlimit="4"/></g></g></g></g><g clip-path="url(#4217f9f4b7)"><g clip-path="url(#59d6d9a2f9)"><g clip-path="url(#9f460a8692)"><g clip-path="url(#ca71934101)"><path stroke-linecap="butt" transform="matrix(0.213832, 0.17778, -0.167088, 0.200134, 150.900052, 99.69638)" fill="none" stroke-linejoin="miter" d="M 323.058087 30.015559 L 391.456519 29.529102 " stroke="#000000" stroke-width="8" stroke-opacity="1" stroke-miterlimit="4"/></g></g></g></g><g clip-path="url(#2a7aa56292)"><g clip-path="url(#426abe15f8)"><g clip-path="url(#94d9e7c988)"><g clip-path="url(#2fb4bf2c6f)"><path fill="#000000" d="M 197.671875 154.710938 L 215.246094 179.933594 L 217.039062 179.917969 L 199.613281 156.117188 Z M 197.671875 154.710938 " fill-opacity="1" fill-rule="evenodd"/></g></g></g></g><g clip-path="url(#3d54dfca33)"><g clip-path="url(#36d5e687b7)"><g clip-path="url(#26d00a9165)"><g clip-path="url(#f598e815b8)"><path stroke-linecap="butt" transform="matrix(0.202336, 0.163174, -0.163662, 0.202941, 167.034853, 95.902069)" fill="none" stroke-linejoin="miter" d="M 233.773635 101.818381 L 347.316358 134.810524 L 352.647962 130.44669 L 242.983651 101.342468 Z M 233.773635 101.818381 " stroke="#000000" stroke-width="1" stroke-opacity="1" stroke-miterlimit="4"/></g></g></g></g><g clip-path="url(#c7623aa5d0)"><g clip-path="url(#743a87029e)"><g clip-path="url(#88f3c1beab)"><g clip-path="url(#50983a80ef)"><path fill="#000000" d="M 203.089844 159.242188 L 219.933594 180.140625 L 221.515625 179.386719 L 204.835938 160.492188 L 203.085938 159.242188 Z M 203.089844 159.242188 " fill-opacity="1" fill-rule="evenodd"/></g></g></g></g><g clip-path="url(#9387202968)"><g clip-path="url(#f9fd56ca4b)"><g clip-path="url(#cfba7d9814)"><g clip-path="url(#41e85c8f3e)"><path stroke-linecap="butt" transform="matrix(0.202336, 0.163174, -0.163662, 0.202941, 167.034853, 95.902069)" fill="none" stroke-linejoin="miter" d="M 260.941802 102.301869 L 361.853835 124.141912 L 364.77077 118.081672 L 269.189572 101.829717 L 260.930104 102.311274 Z M 260.941802 102.301869 " stroke="#000000" stroke-width="1" stroke-opacity="1" stroke-miterlimit="4"/></g></g></g></g><g clip-path="url(#6db411809a)"><g clip-path="url(#01a4e4a02a)"><g clip-path="url(#b20ecb060c)"><g clip-path="url(#e90dbf39a3)"><path fill="#000000" d="M 208.046875 162.394531 L 224.417969 178.417969 L 226.890625 177.34375 L 211.660156 163.789062 Z M 208.046875 162.394531 " fill-opacity="1" fill-rule="evenodd"/></g></g></g></g><g clip-path="url(#c67e34e4f2)"><g clip-path="url(#f71cd264b4)"><g clip-path="url(#3da57ed3f5)"><g clip-path="url(#5c4b421628)"><path stroke-linecap="butt" transform="matrix(0.202336, 0.163174, -0.163662, 0.202941, 167.034853, 95.902069)" fill="none" stroke-linejoin="miter" d="M 283.399496 99.778178 L 371.122739 108.200865 L 375.933228 99.039776 L 297.587915 95.241668 Z M 283.399496 99.778178 " stroke="#000000" stroke-width="1" stroke-opacity="1" stroke-miterlimit="4"/></g></g></g></g><g clip-path="url(#ee79b1e450)"><g clip-path="url(#fb0e000046)"><g clip-path="url(#5fcf22d884)"><g clip-path="url(#03a70e5e8a)"><path fill="#000000" d="M 196.214844 154.105469 L 211.128906 178.808594 L 213.125 179.851562 L 197.316406 154.75 Z M 196.214844 154.105469 " fill-opacity="1" fill-rule="evenodd"/></g></g></g></g><g clip-path="url(#6b32abe7a6)"><g clip-path="url(#b06cd80333)"><g clip-path="url(#211fb5f00d)"><g clip-path="url(#90440ac568)"><path stroke-linecap="butt" transform="matrix(0.202336, 0.163174, -0.163662, 0.202941, 167.034853, 95.902069)" fill="none" stroke-linejoin="miter" d="M 227.948082 103.518913 L 332.269839 141.365108 L 340.766286 139.672856 L 232.803463 102.790923 Z M 227.948082 103.518913 " stroke="#000000" stroke-width="1" stroke-opacity="1" stroke-miterlimit="4"/></g></g></g></g><g clip-path="url(#1496c96434)"><g clip-path="url(#04e14ce504)"><g clip-path="url(#035e92c9c5)"><g clip-path="url(#632e5bd7a7)"><path fill="#000000" d="M 181.101562 142.40625 L 196.238281 162.414062 L 198.09375 163.828125 L 182.664062 143.179688 Z M 181.101562 142.40625 " fill-opacity="1" fill-rule="evenodd"/></g></g></g></g><g clip-path="url(#3f9b9f5f7f)"><g clip-path="url(#adcf7dcbdb)"><g clip-path="url(#aee73e31ed)"><g clip-path="url(#78909505c0)"><path stroke-linecap="butt" transform="matrix(0.202336, 0.163174, -0.163662, 0.202941, 167.034853, 95.902069)" fill="none" stroke-linejoin="miter" d="M 154.434746 104.978566 L 248.083895 128.269702 L 257.055424 128.024039 L 160.981795 103.525591 Z M 154.434746 104.978566 " stroke="#000000" stroke-width="1" stroke-opacity="1" stroke-miterlimit="4"/></g></g></g></g><g clip-path="url(#467eec463f)"><g clip-path="url(#55914c7766)"><g clip-path="url(#b1a6badb93)"><g clip-path="url(#10d02143ea)"><path fill="#000000" d="M 187.402344 146.351562 L 200.332031 166.28125 L 202.855469 169.78125 L 189.386719 147.707031 Z M 187.402344 146.351562 " fill-opacity="1" fill-rule="evenodd"/></g></g></g></g><g clip-path="url(#f4c0b0160f)"><g clip-path="url(#2400935b2a)"><g clip-path="url(#9d98a2690b)"><g clip-path="url(#d06ab10169)"><path stroke-linecap="butt" transform="matrix(0.202336, 0.163174, -0.163662, 0.202941, 167.034853, 95.902069)" fill="none" stroke-linejoin="miter" d="M 182.831575 101.586931 L 269.682731 129.958985 L 285.692235 134.333008 L 192.047629 100.855937 Z M 182.831575 101.586931 " stroke="#000000" stroke-width="1" stroke-opacity="1" stroke-miterlimit="4"/></g></g></g></g><g clip-path="url(#fff8de40e4)"><g clip-path="url(#aff4fe764d)"><g clip-path="url(#ea36248221)"><g clip-path="url(#34a3f66152)"><path fill="#000000" d="M 192.3125 150.308594 L 205.628906 173.074219 L 208.84375 176.722656 L 193.1875 150.933594 Z M 192.3125 150.308594 " fill-opacity="1" fill-rule="evenodd"/></g></g></g></g><g clip-path="url(#507b5b0294)"><g clip-path="url(#9f27326190)"><g clip-path="url(#4cffe1eb92)"><g clip-path="url(#2c0bcfd91f)"><path stroke-linecap="butt" transform="matrix(0.202336, 0.163174, -0.163662, 0.202941, 167.034853, 95.902069)" fill="none" stroke-linejoin="miter" d="M 207.092251 101.578688 L 301.950415 137.486931 L 320.388932 140.639352 L 211.221984 101.337909 Z M 207.092251 101.578688 " stroke="#000000" stroke-width="1" stroke-opacity="1" stroke-miterlimit="4"/></g></g></g></g><g clip-path="url(#a13825f086)"><g clip-path="url(#2a4e7328e6)"><g clip-path="url(#b380636db1)"><g clip-path="url(#b4b7928109)"><path fill="#000000" d="M 193.199219 160.859375 L 179.027344 141.464844 L 176.015625 140.175781 L 189.738281 159.527344 Z M 193.199219 160.859375 " fill-opacity="1" fill-rule="evenodd"/></g></g></g></g><g clip-path="url(#117ac53b7d)"><g clip-path="url(#a41cc042b3)"><g clip-path="url(#69ac461a26)"><g clip-path="url(#ccb05b1c07)"><path stroke-linecap="butt" transform="matrix(0.202336, 0.163174, -0.163662, 0.202941, 167.034853, 95.902069)" fill="none" stroke-linejoin="miter" d="M 235.228284 130.945401 L 145.94962 107.162168 L 133.81739 110.565113 L 221.647024 135.3017 Z M 235.228284 130.945401 " stroke="#000000" stroke-width="1" stroke-opacity="1" stroke-miterlimit="4"/></g></g></g></g><g clip-path="url(#aafd2da486)"><g clip-path="url(#f4f4b77c07)"><g clip-path="url(#695060c3b9)"><g clip-path="url(#716bd66fdf)"><path fill="#000000" d="M 187.390625 159.421875 L 173.96875 139.5 L 170.207031 138.738281 L 184.847656 159.160156 Z M 187.390625 159.421875 " fill-opacity="1" fill-rule="evenodd"/></g></g></g></g><g clip-path="url(#c5cef75a40)"><g clip-path="url(#efe4790cdb)"><g clip-path="url(#e4dba177bb)"><g clip-path="url(#c86b3b80bc)"><path stroke-linecap="butt" transform="matrix(0.202336, 0.163174, -0.163662, 0.202941, 167.034853, 95.902069)" fill="none" stroke-linejoin="miter" d="M 214.36187 140.63958 L 126.055646 113.47596 L 112.950977 120.259292 L 206.114471 145.981221 Z M 214.36187 140.63958 " stroke="#000000" stroke-width="1" stroke-opacity="1" stroke-miterlimit="4"/></g></g></g></g><g clip-path="url(#08388fb649)"><g clip-path="url(#0f5efff106)"><g clip-path="url(#d5d2f9fdb6)"><g clip-path="url(#ce8637b904)"><path fill="#000000" d="M 182.363281 159.429688 L 168.09375 139.148438 L 165.789062 138.589844 L 179.820312 159.167969 Z M 182.363281 159.429688 " fill-opacity="1" fill-rule="evenodd"/></g></g></g></g><g clip-path="url(#86666bda83)"><g clip-path="url(#f48c2727f7)"><g clip-path="url(#ada2957d40)"><g clip-path="url(#b06d69f268)"><path stroke-linecap="butt" transform="matrix(0.202336, 0.163174, -0.163662, 0.202941, 167.034853, 95.902069)" fill="none" stroke-linejoin="miter" d="M 199.325533 152.767948 L 107.612956 126.572352 L 99.362162 130.453861 L 191.078133 158.109589 Z M 199.325533 152.767948 " stroke="#000000" stroke-width="1" stroke-opacity="1" stroke-miterlimit="4"/></g></g></g></g><g clip-path="url(#e9c4ec4215)"><g clip-path="url(#9b96660c6d)"><g clip-path="url(#3e6a363bae)"><g clip-path="url(#6a2aab597e)"><path fill="#000000" d="M 177.722656 160.5625 L 162.003906 138.460938 L 159.988281 138.949219 L 176.179688 161.269531 L 177.71875 160.5625 Z M 177.722656 160.5625 " fill-opacity="1" fill-rule="evenodd"/></g></g></g></g><g clip-path="url(#b6e811c1bd)"><g clip-path="url(#9d4c0035cf)"><g clip-path="url(#e985cf1d5b)"><g clip-path="url(#0fc0a460ac)"><path stroke-linecap="butt" transform="matrix(0.202336, 0.163174, -0.163662, 0.202941, 167.034853, 95.902069)" fill="none" stroke-linejoin="miter" d="M 188.164213 167.324105 L 87.715577 139.183034 L 82.858678 145.494213 L 185.251052 173.150332 L 188.152515 167.33351 Z M 188.164213 167.324105 " stroke="#000000" stroke-width="1" stroke-opacity="1" stroke-miterlimit="4"/></g></g></g></g><g clip-path="url(#88e7769639)"><g clip-path="url(#7c78425594)"><g clip-path="url(#092dddd6b6)"><g clip-path="url(#5771736e55)"><path fill="#000000" d="M 156.476562 139.691406 L 172.863281 162.167969 L 171.21875 163.605469 L 154.050781 139.6875 L 156.476562 139.695312 Z M 156.476562 139.691406 " fill-opacity="1" fill-rule="evenodd"/></g></g></g></g><g clip-path="url(#7c1b242a72)"><g clip-path="url(#3849a2b5c9)"><g clip-path="url(#6616556e42)"><g clip-path="url(#4ad5a40a72)"><path stroke-linecap="butt" transform="matrix(0.202336, 0.163174, -0.163662, 0.202941, 167.034853, 95.902069)" fill="none" stroke-linejoin="miter" d="M 74.134676 156.165844 L 177.489296 183.818202 L 176.036105 192.069958 L 66.860843 161.995075 L 74.14411 156.177507 Z M 74.134676 156.165844 " stroke="#000000" stroke-width="1" stroke-opacity="1" stroke-miterlimit="4"/></g></g></g></g><g clip-path="url(#23f80a512b)"><g clip-path="url(#dbe43000b8)"><g clip-path="url(#1e35346634)"><g clip-path="url(#3f81101504)"><path fill="#000000" d="M 151.738281 140.746094 L 167.976562 165.214844 L 165.542969 166.828125 L 149.410156 141.628906 L 151.742188 140.746094 Z M 151.738281 140.746094 " fill-opacity="1" fill-rule="evenodd"/></g></g></g></g><g clip-path="url(#1d86c089be)"><g clip-path="url(#bc9c12affa)"><g clip-path="url(#0392f624bf)"><g clip-path="url(#5e5953ea34)"><path stroke-linecap="butt" transform="matrix(0.202336, 0.163174, -0.163662, 0.202941, 167.034853, 95.902069)" fill="none" stroke-linejoin="miter" d="M 62.492234 170.723881 L 170.213555 204.681788 L 166.821906 215.358317 L 57.652313 178.965475 L 62.503931 170.714476 Z M 62.492234 170.723881 " stroke="#000000" stroke-width="1" stroke-opacity="1" stroke-miterlimit="4"/></g></g></g></g><g clip-path="url(#82e3356bfd)"><g clip-path="url(#c4c736f8f2)"><g clip-path="url(#8424f77947)"><g clip-path="url(#48d186a90a)"><path fill="#000000" d="M 145.769531 142.921875 L 162.101562 168.28125 L 159.941406 169.953125 L 143.5 143.527344 L 145.773438 142.921875 Z M 145.769531 142.921875 " fill-opacity="1" fill-rule="evenodd"/></g></g></g></g><g clip-path="url(#90f352264e)"><g clip-path="url(#0f3e39031a)"><g clip-path="url(#a181a352bb)"><g clip-path="url(#0bfba3d8fe)"><path stroke-linecap="butt" transform="matrix(0.202336, 0.163174, -0.163662, 0.202941, 167.034853, 95.902069)" fill="none" stroke-linejoin="miter" d="M 49.872442 191.591976 L 160.025412 227.983314 L 157.594123 238.176394 L 44.538192 198.864411 L 49.88414 191.58257 Z M 49.872442 191.591976 " stroke="#000000" stroke-width="1" stroke-opacity="1" stroke-miterlimit="4"/></g></g></g></g><g clip-path="url(#d056d6c9df)"><g clip-path="url(#7fa9c9d412)"><g clip-path="url(#f98267a00f)"><g clip-path="url(#b735095df9)"><path fill="#000000" d="M 140.238281 144.960938 C 145.789062 154.152344 150.058594 164.929688 156.890625 172.53125 L 155.425781 173.945312 C 147.019531 164.550781 143.847656 155.621094 138.0625 146.457031 Z M 140.238281 144.960938 " fill-opacity="1" fill-rule="evenodd"/></g></g></g></g><g clip-path="url(#20b6294d2e)"><g clip-path="url(#abf003f8ff)"><g clip-path="url(#e0c37cdc37)"><g clip-path="url(#20b0479ba2)"><path stroke-linecap="butt" transform="matrix(0.202336, 0.163174, -0.163662, 0.202941, 167.034853, 95.902069)" fill="none" stroke-linejoin="miter" d="M 38.232634 210.998434 C 77.053016 225.076102 115.866594 246.973998 154.684346 253.219775 L 153.712655 260.968894 C 105.850548 253.160263 74.786253 234.13599 35.330033 220.704301 Z M 38.232634 210.998434 " stroke="#000000" stroke-width="1" stroke-opacity="1" stroke-miterlimit="4"/></g></g></g></g><g clip-path="url(#99f8669887)"><g clip-path="url(#949fd08a3a)"><g clip-path="url(#5a9adea9f4)"><g clip-path="url(#0674bc8abd)"><path fill="#000000" d="M 135.078125 147.945312 C 140.917969 157.3125 143.632812 167.019531 152.59375 176.050781 L 151.960938 176.835938 L 132.625 149.382812 Z M 135.078125 147.945312 " fill-opacity="1" fill-rule="evenodd"/></g></g></g></g><g clip-path="url(#bb98834f26)"><g clip-path="url(#c910d530c8)"><g clip-path="url(#f3714060c7)"><g clip-path="url(#541082fcdb)"><path stroke-linecap="butt" transform="matrix(0.202336, 0.163174, -0.163662, 0.202941, 167.034853, 95.902069)" fill="none" stroke-linejoin="miter" d="M 29.987099 232.333807 C 70.097645 246.240294 101.670605 268.685964 150.316474 274.074336 L 150.317601 277.942313 L 26.11244 242.532528 Z M 29.987099 232.333807 " stroke="#000000" stroke-width="1" stroke-opacity="1" stroke-miterlimit="4"/></g></g></g></g><g clip-path="url(#412460d96b)"><g clip-path="url(#30ed2dfdb9)"><g clip-path="url(#15b29ada52)"><g clip-path="url(#bfef9cca5b)"><path stroke-linecap="butt" transform="matrix(0.202336, 0.163174, -0.163662, 0.202941, 167.034853, 95.902069)" fill="none" stroke-linejoin="miter" d="M 27.56029 276.496306 L 136.726162 275.531439 C 139.285009 255.996675 143.098165 241.497318 146.920755 227.009623 L 47.456593 223.619315 C 39.897848 237.569378 33.883971 257.6301 27.56029 276.496306 Z M 27.56029 276.496306 " stroke="#ffffff" stroke-width="1" stroke-opacity="0.941" stroke-miterlimit="4"/></g></g></g></g><g clip-path="url(#115c756a0b)"><g clip-path="url(#52b15b76b6)"><g clip-path="url(#536e63ef43)"><g clip-path="url(#cce408c8ec)"><path stroke-linecap="butt" transform="matrix(0.202336, 0.163174, -0.163662, 0.202941, 167.034853, 95.902069)" fill="none" stroke-linejoin="miter" d="M 51.328606 216.329195 L 148.856956 219.235674 C 153.771226 202.445856 160.804323 186.724146 168.27477 171.208984 L 82.865445 163.928521 C 65.262346 187.610024 58.99603 201.367837 51.328606 216.329195 Z M 51.328606 216.329195 " stroke="#ffffff" stroke-width="1" stroke-opacity="0.941" stroke-miterlimit="4"/><path stroke-linecap="butt" transform="matrix(0.202336, 0.163174, -0.163662, 0.202941, 167.034853, 95.902069)" fill="none" stroke-linejoin="miter" d="M 51.328606 216.329195 L 148.856956 219.235674 C 153.771226 202.445856 160.804323 186.724146 168.27477 171.208984 L 82.865445 163.928521 C 65.262346 187.610024 58.99603 201.367837 51.328606 216.329195 Z M 51.328606 216.329195 " stroke="#ffffff" stroke-width="1" stroke-opacity="0.941" stroke-miterlimit="4"/></g></g></g></g><g clip-path="url(#17a2f62fd8)"><g clip-path="url(#040d2f74d3)"><g clip-path="url(#1c18570cef)"><g clip-path="url(#7b81a76a4d)"><path stroke-linecap="butt" transform="matrix(0.202336, 0.163174, -0.163662, 0.202941, 167.034853, 95.902069)" fill="none" stroke-linejoin="miter" d="M 85.780113 159.082738 L 170.21776 166.355299 C 181.907003 145.196005 198.648966 135.295648 210.488001 126.565723 L 147.888815 116.863151 C 128.828034 122.584013 97.332745 145.559321 85.780113 159.082738 Z M 85.780113 159.082738 " stroke="#ffffff" stroke-width="1" stroke-opacity="0.941" stroke-miterlimit="4"/></g></g></g></g><g clip-path="url(#9bfd615ac5)"><g clip-path="url(#6ed76cef05)"><g clip-path="url(#3e8ce057d3)"><g clip-path="url(#21c99c85a4)"><path stroke-linecap="butt" transform="matrix(0.202336, 0.163174, -0.163662, 0.202941, 167.034853, 95.902069)" fill="none" stroke-linejoin="miter" d="M 156.058476 114.432744 L 214.287177 124.627414 C 235.68867 118.506627 234.957366 116.361387 265.713007 120.754994 L 220.104447 110.075764 C 201.041031 110.948204 180.702171 109.169757 156.058476 114.432744 Z M 156.058476 114.432744 " stroke="#ffffff" stroke-width="1" stroke-opacity="0.941" stroke-miterlimit="4"/></g></g></g></g><g clip-path="url(#8717b0fd5c)"><g clip-path="url(#d51ff4f165)"><g clip-path="url(#15056e0c92)"><g clip-path="url(#65377b43f9)"><path stroke-linecap="butt" transform="matrix(0.202336, 0.163174, -0.163662, 0.202941, 167.034853, 95.902069)" fill="none" stroke-linejoin="miter" d="M 237.652796 110.075036 L 289.089164 125.596299 C 321.675713 131.251017 332.244948 131.453065 351.197067 115.406312 L 303.16101 100.365494 C 289.273711 109.856897 269.583132 114.775268 237.652796 110.075036 Z M 237.652796 110.075036 " stroke="#ffffff" stroke-width="1" stroke-opacity="1" stroke-miterlimit="4"/></g></g></g></g><g clip-path="url(#75f8ce125f)"><g clip-path="url(#e847fb008a)"><g clip-path="url(#2b491a8939)"><g clip-path="url(#1dc45e0fc9)"><path stroke-linecap="butt" transform="matrix(0.202336, 0.163174, -0.163662, 0.202941, 167.034853, 95.902069)" fill="none" stroke-linejoin="miter" d="M 306.550385 97.467055 L 354.586819 112.007118 C 363.019882 101.954378 370.155616 87.86323 374.48386 71.255881 L 325.958366 65.443502 C 321.451639 79.03766 318.459235 85.004595 306.550385 97.467055 Z M 306.550385 97.467055 " stroke="#ffffff" stroke-width="1" stroke-opacity="0.941" stroke-miterlimit="4"/></g></g></g></g><g clip-path="url(#9fba88224e)"><g clip-path="url(#f267bf19c1)"><g clip-path="url(#aff0aeb042)"><g clip-path="url(#330921f725)"><path stroke-linecap="butt" transform="matrix(0.202336, 0.163174, -0.163662, 0.202941, 167.034853, 95.902069)" fill="none" stroke-linejoin="miter" d="M 327.410798 60.580034 L 375.942332 64.943944 C 381.044902 47.098061 382.930169 33.532869 384.19205 20.796125 L 333.248102 21.278376 C 332.520548 35.606555 330.723205 48.850826 327.410798 60.580034 Z M 327.410798 60.580034 " stroke="#ffffff" stroke-width="1" stroke-opacity="1" stroke-miterlimit="4"/></g></g></g></g><g fill="#000000" fill-opacity="1"><g transform="translate(76.783179, 212.993087)"><g><path d="M 14.015625 0.375 C 11.648438 0.375 9.566406 -0.113281 7.765625 -1.09375 C 5.960938 -2.082031 4.550781 -3.5625 3.53125 -5.53125 C 2.519531 -7.5 2.015625 -9.929688 2.015625 -12.828125 C 2.015625 -15.710938 2.519531 -18.140625 3.53125 -20.109375 C 4.550781 -22.078125 5.960938 -23.550781 7.765625 -24.53125 C 9.566406 -25.519531 11.648438 -26.015625 14.015625 -26.015625 C 16.484375 -26.015625 18.578125 -25.53125 20.296875 -24.5625 C 22.023438 -23.601562 23.257812 -22.132812 24 -20.15625 L 20.296875 -17.890625 L 19.859375 -17.90625 C 19.304688 -19.238281 18.554688 -20.191406 17.609375 -20.765625 C 16.671875 -21.347656 15.472656 -21.640625 14.015625 -21.640625 C 11.890625 -21.640625 10.226562 -20.9375 9.03125 -19.53125 C 7.84375 -18.125 7.25 -15.890625 7.25 -12.828125 C 7.25 -9.773438 7.84375 -7.539062 9.03125 -6.125 C 10.226562 -4.71875 11.890625 -4.015625 14.015625 -4.015625 C 17.347656 -4.015625 19.390625 -5.632812 20.140625 -8.875 L 20.578125 -8.875 L 24.3125 -6.921875 C 23.613281 -4.492188 22.414062 -2.671875 20.71875 -1.453125 C 19.019531 -0.234375 16.785156 0.375 14.015625 0.375 Z M 14.015625 0.375 "/></g></g></g><g fill="#000000" fill-opacity="1"><g transform="translate(100.137269, 212.993087)"><g><path d="M 11.25 0.375 C 9.351562 0.375 7.6875 -0.015625 6.25 -0.796875 C 4.820312 -1.578125 3.710938 -2.71875 2.921875 -4.21875 C 2.128906 -5.71875 1.734375 -7.535156 1.734375 -9.671875 C 1.734375 -11.796875 2.128906 -13.609375 2.921875 -15.109375 C 3.710938 -16.617188 4.820312 -17.765625 6.25 -18.546875 C 7.6875 -19.328125 9.351562 -19.71875 11.25 -19.71875 C 13.132812 -19.71875 14.789062 -19.328125 16.21875 -18.546875 C 17.65625 -17.765625 18.769531 -16.617188 19.5625 -15.109375 C 20.363281 -13.609375 20.765625 -11.796875 20.765625 -9.671875 C 20.765625 -7.535156 20.363281 -5.71875 19.5625 -4.21875 C 18.769531 -2.71875 17.65625 -1.578125 16.21875 -0.796875 C 14.789062 -0.015625 13.132812 0.375 11.25 0.375 Z M 11.25 -3.75 C 14.25 -3.75 15.75 -5.722656 15.75 -9.671875 C 15.75 -11.710938 15.363281 -13.207031 14.59375 -14.15625 C 13.820312 -15.113281 12.707031 -15.59375 11.25 -15.59375 C 8.238281 -15.59375 6.734375 -13.617188 6.734375 -9.671875 C 6.734375 -5.722656 8.238281 -3.75 11.25 -3.75 Z M 11.25 -3.75 "/></g></g></g><g fill="#000000" fill-opacity="1"><g transform="translate(120.825465, 212.993087)"><g><path d="M 2.78125 0 L 2.78125 -19.34375 L 7.453125 -19.34375 L 7.453125 -16.5 L 7.828125 -16.421875 C 9.023438 -18.617188 10.976562 -19.71875 13.6875 -19.71875 C 15.914062 -19.71875 17.550781 -19.109375 18.59375 -17.890625 C 19.644531 -16.671875 20.171875 -14.898438 20.171875 -12.578125 L 20.171875 0 L 15.3125 0 L 15.3125 -11.984375 C 15.3125 -13.265625 15.050781 -14.1875 14.53125 -14.75 C 14.019531 -15.320312 13.195312 -15.609375 12.0625 -15.609375 C 10.675781 -15.609375 9.59375 -15.15625 8.8125 -14.25 C 8.03125 -13.351562 7.640625 -11.941406 7.640625 -10.015625 L 7.640625 0 Z M 2.78125 0 "/></g></g></g><g fill="#000000" fill-opacity="1"><g transform="translate(141.689051, 212.993087)"><g><path d="M 9.046875 0.375 C 7.722656 0.375 6.507812 0.21875 5.40625 -0.09375 C 4.3125 -0.40625 3.375 -0.832031 2.59375 -1.375 C 1.820312 -1.914062 1.25 -2.539062 0.875 -3.25 L 3.578125 -6.15625 L 3.953125 -6.15625 C 4.585938 -5.289062 5.34375 -4.640625 6.21875 -4.203125 C 7.101562 -3.773438 8.054688 -3.5625 9.078125 -3.5625 C 10.023438 -3.5625 10.738281 -3.726562 11.21875 -4.0625 C 11.695312 -4.40625 11.9375 -4.894531 11.9375 -5.53125 C 11.9375 -6.019531 11.765625 -6.429688 11.421875 -6.765625 C 11.078125 -7.097656 10.519531 -7.359375 9.75 -7.546875 L 7.1875 -8.15625 C 5.269531 -8.613281 3.867188 -9.3125 2.984375 -10.25 C 2.109375 -11.195312 1.671875 -12.394531 1.671875 -13.84375 C 1.671875 -15.039062 1.976562 -16.082031 2.59375 -16.96875 C 3.207031 -17.863281 4.070312 -18.546875 5.1875 -19.015625 C 6.300781 -19.484375 7.597656 -19.71875 9.078125 -19.71875 C 10.828125 -19.71875 12.273438 -19.460938 13.421875 -18.953125 C 14.566406 -18.453125 15.460938 -17.78125 16.109375 -16.9375 L 13.5 -14.140625 L 13.15625 -14.140625 C 12.613281 -14.742188 12.003906 -15.1875 11.328125 -15.46875 C 10.660156 -15.75 9.910156 -15.890625 9.078125 -15.890625 C 7.160156 -15.890625 6.203125 -15.296875 6.203125 -14.109375 C 6.203125 -13.597656 6.378906 -13.1875 6.734375 -12.875 C 7.097656 -12.5625 7.726562 -12.304688 8.625 -12.109375 L 11.015625 -11.578125 C 12.984375 -11.148438 14.421875 -10.472656 15.328125 -9.546875 C 16.234375 -8.617188 16.6875 -7.375 16.6875 -5.8125 C 16.6875 -4.582031 16.378906 -3.5 15.765625 -2.5625 C 15.160156 -1.625 14.285156 -0.898438 13.140625 -0.390625 C 11.992188 0.117188 10.628906 0.375 9.046875 0.375 Z M 9.046875 0.375 "/></g></g></g><g fill="#000000" fill-opacity="1"><g transform="translate(157.72947, 212.993087)"><g><path d="M 13.34375 -4.609375 L 14.609375 -1.015625 C 14.085938 -0.585938 13.425781 -0.25 12.625 0 C 11.832031 0.25 10.929688 0.375 9.921875 0.375 C 7.828125 0.375 6.238281 -0.191406 5.15625 -1.328125 C 4.070312 -2.472656 3.53125 -4.132812 3.53125 -6.3125 L 3.53125 -15.484375 L 0.578125 -15.484375 L 0.578125 -19.34375 L 3.53125 -19.34375 L 3.53125 -23.140625 L 8.390625 -23.921875 L 8.390625 -19.34375 L 13.875 -19.34375 L 13.875 -15.484375 L 8.390625 -15.484375 L 8.390625 -6.671875 C 8.390625 -5.710938 8.585938 -5.007812 8.984375 -4.5625 C 9.378906 -4.125 9.957031 -3.90625 10.71875 -3.90625 C 11.582031 -3.90625 12.335938 -4.140625 12.984375 -4.609375 Z M 13.34375 -4.609375 "/></g></g></g><g fill="#000000" fill-opacity="1"><g transform="translate(170.963687, 212.993087)"><g><path d="M 7.546875 0.375 C 6.304688 0.375 5.226562 0.144531 4.3125 -0.3125 C 3.40625 -0.769531 2.703125 -1.4375 2.203125 -2.3125 C 1.710938 -3.195312 1.46875 -4.257812 1.46875 -5.5 C 1.46875 -6.644531 1.710938 -7.609375 2.203125 -8.390625 C 2.703125 -9.171875 3.460938 -9.804688 4.484375 -10.296875 C 5.515625 -10.796875 6.863281 -11.179688 8.53125 -11.453125 C 9.6875 -11.640625 10.5625 -11.84375 11.15625 -12.0625 C 11.757812 -12.289062 12.164062 -12.546875 12.375 -12.828125 C 12.59375 -13.109375 12.703125 -13.460938 12.703125 -13.890625 C 12.703125 -14.515625 12.484375 -14.988281 12.046875 -15.3125 C 11.617188 -15.632812 10.898438 -15.796875 9.890625 -15.796875 C 8.816406 -15.796875 7.796875 -15.554688 6.828125 -15.078125 C 5.859375 -14.597656 5.015625 -13.96875 4.296875 -13.1875 L 3.953125 -13.1875 L 1.90625 -16.265625 C 2.894531 -17.347656 4.09375 -18.191406 5.5 -18.796875 C 6.914062 -19.410156 8.460938 -19.71875 10.140625 -19.71875 C 12.703125 -19.71875 14.554688 -19.171875 15.703125 -18.078125 C 16.847656 -16.992188 17.421875 -15.453125 17.421875 -13.453125 L 17.421875 -5.046875 C 17.421875 -4.179688 17.800781 -3.75 18.5625 -3.75 C 18.851562 -3.75 19.140625 -3.800781 19.421875 -3.90625 L 19.65625 -3.84375 L 20.015625 -0.453125 C 19.742188 -0.273438 19.367188 -0.128906 18.890625 -0.015625 C 18.410156 0.0859375 17.882812 0.140625 17.3125 0.140625 C 16.15625 0.140625 15.25 -0.078125 14.59375 -0.515625 C 13.945312 -0.960938 13.484375 -1.660156 13.203125 -2.609375 L 12.84375 -2.65625 C 11.894531 -0.632812 10.128906 0.375 7.546875 0.375 Z M 9.078125 -3.265625 C 10.203125 -3.265625 11.097656 -3.640625 11.765625 -4.390625 C 12.441406 -5.148438 12.78125 -6.203125 12.78125 -7.546875 L 12.78125 -9.5 L 12.453125 -9.578125 C 12.160156 -9.335938 11.773438 -9.140625 11.296875 -8.984375 C 10.828125 -8.828125 10.148438 -8.675781 9.265625 -8.53125 C 8.210938 -8.351562 7.453125 -8.050781 6.984375 -7.625 C 6.523438 -7.195312 6.296875 -6.59375 6.296875 -5.8125 C 6.296875 -4.976562 6.539062 -4.34375 7.03125 -3.90625 C 7.519531 -3.476562 8.203125 -3.265625 9.078125 -3.265625 Z M 9.078125 -3.265625 "/></g></g></g><g fill="#000000" fill-opacity="1"><g transform="translate(189.564767, 212.993087)"><g><path d="M 2.78125 0 L 2.78125 -19.34375 L 7.453125 -19.34375 L 7.453125 -16.5 L 7.828125 -16.421875 C 9.023438 -18.617188 10.976562 -19.71875 13.6875 -19.71875 C 15.914062 -19.71875 17.550781 -19.109375 18.59375 -17.890625 C 19.644531 -16.671875 20.171875 -14.898438 20.171875 -12.578125 L 20.171875 0 L 15.3125 0 L 15.3125 -11.984375 C 15.3125 -13.265625 15.050781 -14.1875 14.53125 -14.75 C 14.019531 -15.320312 13.195312 -15.609375 12.0625 -15.609375 C 10.675781 -15.609375 9.59375 -15.15625 8.8125 -14.25 C 8.03125 -13.351562 7.640625 -11.941406 7.640625 -10.015625 L 7.640625 0 Z M 2.78125 0 "/></g></g></g><g fill="#000000" fill-opacity="1"><g transform="translate(210.42835, 212.993087)"><g><path d="M 13.34375 -4.609375 L 14.609375 -1.015625 C 14.085938 -0.585938 13.425781 -0.25 12.625 0 C 11.832031 0.25 10.929688 0.375 9.921875 0.375 C 7.828125 0.375 6.238281 -0.191406 5.15625 -1.328125 C 4.070312 -2.472656 3.53125 -4.132812 3.53125 -6.3125 L 3.53125 -15.484375 L 0.578125 -15.484375 L 0.578125 -19.34375 L 3.53125 -19.34375 L 3.53125 -23.140625 L 8.390625 -23.921875 L 8.390625 -19.34375 L 13.875 -19.34375 L 13.875 -15.484375 L 8.390625 -15.484375 L 8.390625 -6.671875 C 8.390625 -5.710938 8.585938 -5.007812 8.984375 -4.5625 C 9.378906 -4.125 9.957031 -3.90625 10.71875 -3.90625 C 11.582031 -3.90625 12.335938 -4.140625 12.984375 -4.609375 Z M 13.34375 -4.609375 "/></g></g></g><g fill="#000000" fill-opacity="1"><g transform="translate(223.662575, 212.993087)"><g><path d="M 5.203125 -21.65625 C 4.328125 -21.65625 3.613281 -21.921875 3.0625 -22.453125 C 2.519531 -22.992188 2.25 -23.679688 2.25 -24.515625 C 2.25 -25.347656 2.519531 -26.03125 3.0625 -26.5625 C 3.613281 -27.09375 4.328125 -27.359375 5.203125 -27.359375 C 5.796875 -27.359375 6.316406 -27.234375 6.765625 -26.984375 C 7.222656 -26.742188 7.578125 -26.410156 7.828125 -25.984375 C 8.078125 -25.554688 8.203125 -25.066406 8.203125 -24.515625 C 8.203125 -23.972656 8.078125 -23.484375 7.828125 -23.046875 C 7.578125 -22.617188 7.222656 -22.28125 6.765625 -22.03125 C 6.316406 -21.78125 5.796875 -21.65625 5.203125 -21.65625 Z M 7.640625 0 L 2.78125 0 L 2.78125 -19.34375 L 7.640625 -19.34375 Z M 7.640625 0 "/></g></g></g><g fill="#000000" fill-opacity="1"><g transform="translate(232.284094, 212.993087)"><g><path d="M 2.78125 0 L 2.78125 -19.34375 L 7.453125 -19.34375 L 7.453125 -16.5 L 7.828125 -16.421875 C 9.023438 -18.617188 10.976562 -19.71875 13.6875 -19.71875 C 15.914062 -19.71875 17.550781 -19.109375 18.59375 -17.890625 C 19.644531 -16.671875 20.171875 -14.898438 20.171875 -12.578125 L 20.171875 0 L 15.3125 0 L 15.3125 -11.984375 C 15.3125 -13.265625 15.050781 -14.1875 14.53125 -14.75 C 14.019531 -15.320312 13.195312 -15.609375 12.0625 -15.609375 C 10.675781 -15.609375 9.59375 -15.15625 8.8125 -14.25 C 8.03125 -13.351562 7.640625 -11.941406 7.640625 -10.015625 L 7.640625 0 Z M 2.78125 0 "/></g></g></g><g fill="#000000" fill-opacity="1"><g transform="translate(253.147677, 212.993087)"><g><path d="M 19.125 -8.578125 L 6.703125 -8.546875 C 6.835938 -6.867188 7.3125 -5.648438 8.125 -4.890625 C 8.9375 -4.128906 10.050781 -3.75 11.46875 -3.75 C 12.582031 -3.75 13.484375 -3.957031 14.171875 -4.375 C 14.859375 -4.789062 15.414062 -5.421875 15.84375 -6.265625 L 16.203125 -6.265625 L 19.4375 -4.1875 C 18.800781 -2.832031 17.84375 -1.734375 16.5625 -0.890625 C 15.289062 -0.046875 13.59375 0.375 11.46875 0.375 C 9.46875 0.375 7.738281 -0.00390625 6.28125 -0.765625 C 4.832031 -1.523438 3.710938 -2.65625 2.921875 -4.15625 C 2.128906 -5.664062 1.734375 -7.503906 1.734375 -9.671875 C 1.734375 -11.867188 2.148438 -13.71875 2.984375 -15.21875 C 3.816406 -16.726562 4.9375 -17.851562 6.34375 -18.59375 C 7.757812 -19.34375 9.351562 -19.71875 11.125 -19.71875 C 13.851562 -19.71875 15.945312 -18.988281 17.40625 -17.53125 C 18.863281 -16.082031 19.59375 -13.957031 19.59375 -11.15625 C 19.59375 -10.132812 19.554688 -9.34375 19.484375 -8.78125 Z M 14.9375 -11.71875 C 14.894531 -13.1875 14.554688 -14.253906 13.921875 -14.921875 C 13.285156 -15.597656 12.351562 -15.9375 11.125 -15.9375 C 8.664062 -15.9375 7.21875 -14.53125 6.78125 -11.71875 Z M 14.9375 -11.71875 "/></g></g></g><g fill="#000000" fill-opacity="1"><g transform="translate(272.380153, 212.993087)"><g><path d="M 0.84375 -16.65625 C 1.914062 -17.25 2.8125 -17.925781 3.53125 -18.6875 C 4.257812 -19.457031 4.675781 -20.242188 4.78125 -21.046875 C 3.882812 -21.078125 3.179688 -21.347656 2.671875 -21.859375 C 2.160156 -22.378906 1.90625 -23.050781 1.90625 -23.875 C 1.90625 -24.425781 2.03125 -24.914062 2.28125 -25.34375 C 2.53125 -25.78125 2.878906 -26.125 3.328125 -26.375 C 3.785156 -26.625 4.3125 -26.75 4.90625 -26.75 C 5.84375 -26.75 6.597656 -26.421875 7.171875 -25.765625 C 7.742188 -25.109375 8.03125 -24.195312 8.03125 -23.03125 C 8.03125 -21.070312 7.507812 -19.394531 6.46875 -18 C 5.4375 -16.613281 4.035156 -15.421875 2.265625 -14.421875 Z M 0.84375 -16.65625 "/></g></g></g><g fill="#000000" fill-opacity="1"><g transform="translate(280.335199, 212.993087)"><g><path d="M 9.046875 0.375 C 7.722656 0.375 6.507812 0.21875 5.40625 -0.09375 C 4.3125 -0.40625 3.375 -0.832031 2.59375 -1.375 C 1.820312 -1.914062 1.25 -2.539062 0.875 -3.25 L 3.578125 -6.15625 L 3.953125 -6.15625 C 4.585938 -5.289062 5.34375 -4.640625 6.21875 -4.203125 C 7.101562 -3.773438 8.054688 -3.5625 9.078125 -3.5625 C 10.023438 -3.5625 10.738281 -3.726562 11.21875 -4.0625 C 11.695312 -4.40625 11.9375 -4.894531 11.9375 -5.53125 C 11.9375 -6.019531 11.765625 -6.429688 11.421875 -6.765625 C 11.078125 -7.097656 10.519531 -7.359375 9.75 -7.546875 L 7.1875 -8.15625 C 5.269531 -8.613281 3.867188 -9.3125 2.984375 -10.25 C 2.109375 -11.195312 1.671875 -12.394531 1.671875 -13.84375 C 1.671875 -15.039062 1.976562 -16.082031 2.59375 -16.96875 C 3.207031 -17.863281 4.070312 -18.546875 5.1875 -19.015625 C 6.300781 -19.484375 7.597656 -19.71875 9.078125 -19.71875 C 10.828125 -19.71875 12.273438 -19.460938 13.421875 -18.953125 C 14.566406 -18.453125 15.460938 -17.78125 16.109375 -16.9375 L 13.5 -14.140625 L 13.15625 -14.140625 C 12.613281 -14.742188 12.003906 -15.1875 11.328125 -15.46875 C 10.660156 -15.75 9.910156 -15.890625 9.078125 -15.890625 C 7.160156 -15.890625 6.203125 -15.296875 6.203125 -14.109375 C 6.203125 -13.597656 6.378906 -13.1875 6.734375 -12.875 C 7.097656 -12.5625 7.726562 -12.304688 8.625 -12.109375 L 11.015625 -11.578125 C 12.984375 -11.148438 14.421875 -10.472656 15.328125 -9.546875 C 16.234375 -8.617188 16.6875 -7.375 16.6875 -5.8125 C 16.6875 -4.582031 16.378906 -3.5 15.765625 -2.5625 C 15.160156 -1.625 14.285156 -0.898438 13.140625 -0.390625 C 11.992188 0.117188 10.628906 0.375 9.046875 0.375 Z M 9.046875 0.375 "/></g></g></g><g fill="#000000" fill-opacity="1"><g transform="translate(129.039301, 232.249833)"><g><path d="M 9.25 0 L 8.046875 0 L 8.03125 -5.8125 L 5.578125 -0.8125 L 4.71875 -0.8125 L 2.265625 -5.8125 L 2.265625 0 L 1.03125 0 L 1.03125 -7.78125 L 2.578125 -7.78125 L 5.15625 -2.609375 L 7.703125 -7.78125 L 9.25 -7.78125 Z M 9.25 0 "/></g></g></g><g fill="#000000" fill-opacity="1"><g transform="translate(141.350797, 232.249833)"><g><path d="M 1.5625 -6.6875 C 2.363281 -7.445312 3.34375 -7.828125 4.5 -7.828125 C 5.664062 -7.828125 6.644531 -7.445312 7.4375 -6.6875 C 8.238281 -5.9375 8.640625 -5.003906 8.640625 -3.890625 C 8.640625 -2.773438 8.238281 -1.835938 7.4375 -1.078125 C 6.644531 -0.316406 5.664062 0.0625 4.5 0.0625 C 3.34375 0.0625 2.363281 -0.316406 1.5625 -1.078125 C 0.769531 -1.835938 0.375 -2.773438 0.375 -3.890625 C 0.375 -5.003906 0.769531 -5.9375 1.5625 -6.6875 Z M 4.515625 -6.640625 C 3.742188 -6.640625 3.082031 -6.375 2.53125 -5.84375 C 1.988281 -5.3125 1.71875 -4.660156 1.71875 -3.890625 C 1.71875 -3.117188 1.992188 -2.460938 2.546875 -1.921875 C 3.097656 -1.390625 3.753906 -1.125 4.515625 -1.125 C 5.273438 -1.125 5.925781 -1.390625 6.46875 -1.921875 C 7.007812 -2.460938 7.28125 -3.117188 7.28125 -3.890625 C 7.28125 -4.660156 7.007812 -5.3125 6.46875 -5.84375 C 5.925781 -6.375 5.273438 -6.640625 4.515625 -6.640625 Z M 4.515625 -6.640625 "/></g></g></g><g fill="#000000" fill-opacity="1"><g transform="translate(152.384692, 232.249833)"><g><path d="M 4.5 0 L 3.140625 0 L 0.03125 -7.78125 L 1.453125 -7.78125 L 3.84375 -1.453125 L 6.28125 -7.78125 L 7.640625 -7.78125 Z M 4.5 0 "/></g></g></g><g fill="#000000" fill-opacity="1"><g transform="translate(162.085425, 232.249833)"><g><path d="M 2.34375 0 L 1.03125 0 L 1.03125 -7.78125 L 2.34375 -7.78125 Z M 2.34375 0 "/></g></g></g><g fill="#000000" fill-opacity="1"><g transform="translate(167.475625, 232.249833)"><g><path d="M 6.59375 -6.609375 L 2.34375 -6.609375 L 2.34375 -4.5 L 6.140625 -4.5 L 6.140625 -3.328125 L 2.34375 -3.328125 L 2.34375 -1.171875 L 6.71875 -1.171875 L 6.71875 0 L 1.03125 0 L 1.03125 -7.78125 L 6.59375 -7.78125 Z M 6.59375 -6.609375 "/></g></g></g><g fill="#000000" fill-opacity="1"><g transform="translate(176.79863, 232.249833)"><g/></g></g><g fill="#000000" fill-opacity="1"><g transform="translate(181.700007, 232.249833)"><g><path d="M 5.96875 0 L 4.53125 -2.359375 C 4.457031 -2.347656 4.34375 -2.34375 4.1875 -2.34375 L 2.34375 -2.34375 L 2.34375 0 L 1.03125 0 L 1.03125 -7.78125 L 4.1875 -7.78125 C 5.175781 -7.78125 5.941406 -7.546875 6.484375 -7.078125 C 7.035156 -6.617188 7.3125 -5.96875 7.3125 -5.125 C 7.3125 -4.5 7.171875 -3.972656 6.890625 -3.546875 C 6.617188 -3.117188 6.222656 -2.804688 5.703125 -2.609375 L 7.453125 0 Z M 2.34375 -3.53125 L 4.1875 -3.53125 C 5.445312 -3.53125 6.078125 -4.050781 6.078125 -5.09375 C 6.078125 -6.101562 5.445312 -6.609375 4.1875 -6.609375 L 2.34375 -6.609375 Z M 2.34375 -3.53125 "/></g></g></g><g fill="#000000" fill-opacity="1"><g transform="translate(191.767358, 232.249833)"><g><path d="M 6.59375 -6.609375 L 2.34375 -6.609375 L 2.34375 -4.5 L 6.140625 -4.5 L 6.140625 -3.328125 L 2.34375 -3.328125 L 2.34375 -1.171875 L 6.71875 -1.171875 L 6.71875 0 L 1.03125 0 L 1.03125 -7.78125 L 6.59375 -7.78125 Z M 6.59375 -6.609375 "/></g></g></g><g fill="#000000" fill-opacity="1"><g transform="translate(201.090366, 232.249833)"><g><path d="M 4.5 0 L 3.140625 0 L 0.03125 -7.78125 L 1.453125 -7.78125 L 3.84375 -1.453125 L 6.28125 -7.78125 L 7.640625 -7.78125 Z M 4.5 0 "/></g></g></g><g fill="#000000" fill-opacity="1"><g transform="translate(210.791102, 232.249833)"><g><path d="M 2.34375 0 L 1.03125 0 L 1.03125 -7.78125 L 2.34375 -7.78125 Z M 2.34375 0 "/></g></g></g><g fill="#000000" fill-opacity="1"><g transform="translate(216.181299, 232.249833)"><g><path d="M 6.59375 -6.609375 L 2.34375 -6.609375 L 2.34375 -4.5 L 6.140625 -4.5 L 6.140625 -3.328125 L 2.34375 -3.328125 L 2.34375 -1.171875 L 6.71875 -1.171875 L 6.71875 0 L 1.03125 0 L 1.03125 -7.78125 L 6.59375 -7.78125 Z M 6.59375 -6.609375 "/></g></g></g><g fill="#000000" fill-opacity="1"><g transform="translate(225.5043, 232.249833)"><g><path d="M 9.03125 0 L 7.6875 0 L 5.84375 -6.078125 L 3.96875 0 L 2.609375 0 L 0.03125 -7.78125 L 1.453125 -7.78125 L 3.34375 -1.453125 L 5.21875 -7.78125 L 6.515625 -7.78125 L 8.40625 -1.453125 L 10.28125 -7.78125 L 11.640625 -7.78125 Z M 9.03125 0 "/></g></g></g><g fill="#000000" fill-opacity="1"><g transform="translate(239.048959, 232.249833)"><g><path d="M 3.578125 -7.84375 C 4.585938 -7.84375 5.5 -7.578125 6.3125 -7.046875 L 5.765625 -5.890625 C 4.972656 -6.367188 4.210938 -6.609375 3.484375 -6.609375 C 3.085938 -6.609375 2.773438 -6.535156 2.546875 -6.390625 C 2.328125 -6.253906 2.21875 -6.054688 2.21875 -5.796875 C 2.21875 -5.535156 2.320312 -5.3125 2.53125 -5.125 C 2.738281 -4.945312 2.992188 -4.816406 3.296875 -4.734375 C 3.609375 -4.648438 3.945312 -4.539062 4.3125 -4.40625 C 4.675781 -4.28125 5.015625 -4.144531 5.328125 -4 C 5.640625 -3.851562 5.894531 -3.625 6.09375 -3.3125 C 6.300781 -3.007812 6.40625 -2.640625 6.40625 -2.203125 C 6.40625 -1.515625 6.128906 -0.96875 5.578125 -0.5625 C 5.035156 -0.15625 4.332031 0.046875 3.46875 0.046875 C 2.875 0.046875 2.296875 -0.0625 1.734375 -0.28125 C 1.179688 -0.507812 0.703125 -0.8125 0.296875 -1.1875 L 0.859375 -2.328125 C 1.253906 -1.960938 1.6875 -1.679688 2.15625 -1.484375 C 2.625 -1.285156 3.070312 -1.1875 3.5 -1.1875 C 3.957031 -1.1875 4.3125 -1.269531 4.5625 -1.4375 C 4.820312 -1.601562 4.953125 -1.835938 4.953125 -2.140625 C 4.953125 -2.398438 4.847656 -2.617188 4.640625 -2.796875 C 4.429688 -2.984375 4.171875 -3.117188 3.859375 -3.203125 C 3.546875 -3.296875 3.207031 -3.398438 2.84375 -3.515625 C 2.476562 -3.640625 2.140625 -3.769531 1.828125 -3.90625 C 1.523438 -4.039062 1.269531 -4.257812 1.0625 -4.5625 C 0.851562 -4.875 0.75 -5.242188 0.75 -5.671875 C 0.75 -6.328125 1.003906 -6.851562 1.515625 -7.25 C 2.035156 -7.644531 2.722656 -7.84375 3.578125 -7.84375 Z M 3.578125 -7.84375 "/></g></g></g></svg>